<svg width="15" height="21" viewBox="0 0 15 21" fill="none" xmlns="http://www.w3.org/2000/svg">
<path d="M6.54751 20.5096C11.2442 20.5096 14.1667 17.115 14.1667 12.7355C14.1667 11.0844 13.8925 9.59353 11.9817 9.14561C12.4467 7.89666 13.7883 4.28386 13.7883 3.12646C13.7883 2.1072 13.1633 1.25304 12.0492 1.25304C10.2733 1.25304 8.68167 6.29869 8.18334 7.50187C7.7975 6.40986 5.99084 0.892578 4.39834 0.892578C3.16084 0.892578 2.58001 1.76962 2.58001 2.87308C2.58001 4.22583 3.94084 7.73155 4.43417 9.08022C4.18417 8.99194 3.91334 8.91511 3.6375 8.91511C2.70584 8.91511 1.715 10.03 1.715 10.9308C1.715 11.2716 1.91 11.7506 2.03334 12.0685C0.565005 12.4519 4.77463e-06 13.3943 4.77463e-06 14.8157C-0.00416189 17.5817 2.71917 20.5096 6.54751 20.5096ZM10.5725 5.03095C10.7325 4.55932 11.4125 2.56738 12.0492 2.56738C12.3917 2.56738 12.4833 2.90822 12.4833 3.18041C12.4833 3.91196 10.9475 7.95469 10.6083 8.85054L9.255 8.62085L10.5725 5.03095ZM3.83 2.74393V2.74311C3.83 2.28702 4.40751 0.992298 5.67251 4.54788L7.05 8.39117C6.42917 8.34131 5.94751 8.27592 5.64167 8.44512C5.20751 7.34166 3.83 3.85883 3.83 2.74393ZM3.73834 10.2409L3.73917 10.2417C4.905 10.2417 6.41001 13.8659 6.41001 14.3564C6.41001 14.5517 6.215 14.7928 5.98834 14.7928C5.15584 14.7928 2.92667 11.8462 2.92667 11.0493C2.93001 10.7542 3.43167 10.2409 3.73834 10.2409ZM2.39834 13.2407C2.85167 13.2407 4.55917 15.5514 4.55917 16.0418C4.55917 16.2298 4.2525 16.3598 4.09417 16.3598C3.45334 16.3598 3.2025 15.7655 2.06084 14.3907C0.878338 15.5285 2.87667 17.7199 4.38167 17.7199C5.42001 17.7199 6.09667 16.793 5.89417 16.1105C6.04167 16.1105 6.22417 16.1219 6.36 16.0876C6.40417 17.1256 6.7225 18.3631 8.02001 18.4514C8.02001 18.4171 8.10001 18.1792 8.10001 18.1678C8.10001 17.5008 7.67834 16.9188 7.67834 16.2404C7.67834 15.1558 8.54167 14.1063 9.41751 13.4932C9.73584 13.2635 10.1225 13.1213 10.4958 12.9914C10.8825 12.8499 11.2925 12.6848 11.5858 12.4012C11.5417 11.9721 11.3592 11.5928 10.9133 11.5928C9.81084 11.5928 6.11334 11.7465 6.11334 10.0717C6.11334 9.81504 6.11751 9.56983 6.80667 9.56983C8.09251 9.56983 11.3567 9.87634 12.3117 10.6847C13.0317 11.3018 13.2792 15.0217 11.0775 17.3782L11.075 17.379C9.91667 18.6051 8.43584 19.241 6.70834 19.241C4.34417 19.241 2.47667 17.9921 1.5775 15.8579C0.896672 14.1953 1.72917 13.2407 2.39834 13.2407ZM7.14917 12.5508C7.53667 12.6701 7.93417 12.7053 8.33251 12.7813C8.03751 12.9881 7.77584 13.2415 7.52417 13.5128C7.41251 13.1875 7.27667 12.8696 7.14917 12.5508Z" fill="#505F79"/>
</svg>
