<svg width="329" height="476" viewBox="0 0 329 476" fill="none" xmlns="http://www.w3.org/2000/svg">
<rect x="0.5" y="0.5" width="328" height="475" rx="8.5" fill="#EBF0EE" stroke="#D0D9D4"/>
<g clip-path="url(#clip0_48_1344)">
<path d="M1 261C1 256.582 4.58172 253 9 253H320C324.418 253 328 256.582 328 261V467C328 471.418 324.418 475 320 475H9C4.58173 475 1 471.418 1 467V261Z" fill="white"/>
<path d="M61.4208 272.545V290H64.4549V277.983H64.6168L69.4407 289.949H71.7077L76.5316 278.009H76.6935V290H79.7276V272.545H75.8583L70.6765 285.193H70.4719L65.2901 272.545H61.4208ZM91.3782 284.494C91.3782 286.489 89.9549 287.477 88.5913 287.477C87.1083 287.477 86.1197 286.429 86.1197 284.767V276.909H83.0344V285.244C83.0344 288.389 84.8242 290.17 87.3981 290.17C89.3583 290.17 90.739 289.139 91.3356 287.673H91.4719V290H94.4634V276.909H91.3782V284.494ZM100.721 272.545H97.636V290H100.721V272.545ZM110.431 276.909H107.848V273.773H104.763V276.909H102.905V279.295H104.763V286.574C104.746 289.037 106.536 290.247 108.854 290.179C109.732 290.153 110.337 289.983 110.669 289.872L110.15 287.46C109.979 287.503 109.63 287.58 109.246 287.58C108.471 287.58 107.848 287.307 107.848 286.062V279.295H110.431V276.909ZM113.011 290H116.096V276.909H113.011V290ZM114.562 275.051C115.542 275.051 116.343 274.301 116.343 273.381C116.343 272.452 115.542 271.702 114.562 271.702C113.574 271.702 112.772 272.452 112.772 273.381C112.772 274.301 113.574 275.051 114.562 275.051ZM127.203 281.46H119.346V284H127.203V281.46ZM130.585 290H133.747V284.102H137.088C141.119 284.102 143.284 281.682 143.284 278.324C143.284 274.991 141.145 272.545 137.13 272.545H130.585V290ZM133.747 281.503V275.188H136.645C139.014 275.188 140.062 276.466 140.062 278.324C140.062 280.182 139.014 281.503 136.662 281.503H133.747ZM151.417 290.256C155.252 290.256 157.689 287.554 157.689 283.506C157.689 279.449 155.252 276.739 151.417 276.739C147.581 276.739 145.144 279.449 145.144 283.506C145.144 287.554 147.581 290.256 151.417 290.256ZM151.434 287.784C149.311 287.784 148.272 285.892 148.272 283.497C148.272 281.102 149.311 279.185 151.434 279.185C153.522 279.185 154.561 281.102 154.561 283.497C154.561 285.892 153.522 287.784 151.434 287.784ZM170.654 280.369C170.228 278.153 168.456 276.739 165.387 276.739C162.234 276.739 160.086 278.29 160.095 280.71C160.086 282.619 161.262 283.881 163.777 284.401L166.01 284.869C167.211 285.134 167.774 285.619 167.774 286.361C167.774 287.256 166.802 287.929 165.336 287.929C163.922 287.929 163.001 287.315 162.737 286.139L159.728 286.429C160.112 288.832 162.132 290.256 165.345 290.256C168.618 290.256 170.927 288.56 170.936 286.08C170.927 284.213 169.725 283.071 167.254 282.534L165.021 282.057C163.691 281.759 163.163 281.298 163.172 280.54C163.163 279.653 164.143 279.04 165.43 279.04C166.853 279.04 167.603 279.815 167.842 280.676L170.654 280.369ZM180.017 276.909H177.434V273.773H174.349V276.909H172.491V279.295H174.349V286.574C174.332 289.037 176.122 290.247 178.44 290.179C179.318 290.153 179.923 289.983 180.255 289.872L179.735 287.46C179.565 287.503 179.216 287.58 178.832 287.58C178.056 287.58 177.434 287.307 177.434 286.062V279.295H180.017V276.909ZM198.172 277.344H201.215C201.155 274.395 198.641 272.307 194.925 272.307C191.26 272.307 188.507 274.369 188.516 277.455C188.516 279.96 190.297 281.401 193.169 282.142L195.155 282.653C197.039 283.131 198.283 283.719 198.292 285.074C198.283 286.565 196.868 287.562 194.806 287.562C192.828 287.562 191.294 286.676 191.167 284.844H188.056C188.184 288.312 190.766 290.264 194.831 290.264C199.016 290.264 201.445 288.176 201.453 285.099C201.445 282.074 198.948 280.693 196.323 280.071L194.686 279.662C193.255 279.321 191.703 278.716 191.721 277.259C191.729 275.946 192.905 274.983 194.882 274.983C196.766 274.983 198.01 275.861 198.172 277.344ZM210.673 276.909H208.091V273.773H205.005V276.909H203.147V279.295H205.005V286.574C204.988 289.037 206.778 290.247 209.096 290.179C209.974 290.153 210.579 289.983 210.912 289.872L210.392 287.46C210.221 287.503 209.872 287.58 209.488 287.58C208.713 287.58 208.091 287.307 208.091 286.062V279.295H210.673V276.909ZM218.823 290.256C222.658 290.256 225.096 287.554 225.096 283.506C225.096 279.449 222.658 276.739 218.823 276.739C214.988 276.739 212.55 279.449 212.55 283.506C212.55 287.554 214.988 290.256 218.823 290.256ZM218.84 287.784C216.718 287.784 215.678 285.892 215.678 283.497C215.678 281.102 216.718 279.185 218.84 279.185C220.928 279.185 221.968 281.102 221.968 283.497C221.968 285.892 220.928 287.784 218.84 287.784ZM227.714 290H230.799V282.304C230.799 280.642 232.052 279.466 233.748 279.466C234.268 279.466 234.916 279.56 235.18 279.645V276.807C234.899 276.756 234.413 276.722 234.072 276.722C232.572 276.722 231.319 277.574 230.842 279.091H230.706V276.909H227.714V290ZM237.23 290H240.315V276.909H237.23V290ZM238.781 275.051C239.761 275.051 240.562 274.301 240.562 273.381C240.562 272.452 239.761 271.702 238.781 271.702C237.792 271.702 236.991 272.452 236.991 273.381C236.991 274.301 237.792 275.051 238.781 275.051ZM249.283 290.256C252.334 290.256 254.431 288.764 254.976 286.489L252.096 286.165C251.678 287.273 250.655 287.852 249.326 287.852C247.331 287.852 246.01 286.54 245.985 284.298H255.104V283.352C255.104 278.759 252.343 276.739 249.121 276.739C245.371 276.739 242.925 279.491 242.925 283.531C242.925 287.639 245.337 290.256 249.283 290.256ZM245.993 282.219C246.087 280.548 247.323 279.142 249.164 279.142C250.936 279.142 252.13 280.438 252.147 282.219H245.993ZM268.061 280.369C267.635 278.153 265.862 276.739 262.794 276.739C259.64 276.739 257.493 278.29 257.501 280.71C257.493 282.619 258.669 283.881 261.183 284.401L263.416 284.869C264.618 285.134 265.18 285.619 265.18 286.361C265.18 287.256 264.208 287.929 262.743 287.929C261.328 287.929 260.407 287.315 260.143 286.139L257.135 286.429C257.518 288.832 259.538 290.256 262.751 290.256C266.024 290.256 268.333 288.56 268.342 286.08C268.333 284.213 267.132 283.071 264.66 282.534L262.427 282.057C261.098 281.759 260.569 281.298 260.578 280.54C260.569 279.653 261.549 279.04 262.836 279.04C264.26 279.04 265.01 279.815 265.248 280.676L268.061 280.369ZM112.079 310.119H115.3C114.763 306.693 111.798 304.307 107.937 304.307C103.369 304.307 99.9425 307.665 99.9425 313.29C99.9425 318.812 103.215 322.239 108.031 322.239C112.352 322.239 115.445 319.46 115.445 314.96V312.864H108.363V315.335H112.386C112.335 317.824 110.673 319.401 108.048 319.401C105.124 319.401 103.121 317.21 103.121 313.256C103.121 309.327 105.158 307.145 107.979 307.145C110.085 307.145 111.516 308.27 112.079 310.119ZM122.134 322.264C124.188 322.264 125.415 321.301 125.977 320.202H126.08V322H129.045V313.239C129.045 309.778 126.224 308.739 123.727 308.739C120.974 308.739 118.861 309.966 118.179 312.352L121.06 312.761C121.366 311.866 122.236 311.099 123.744 311.099C125.176 311.099 125.96 311.832 125.96 313.119V313.17C125.96 314.057 125.031 314.099 122.722 314.347C120.182 314.619 117.753 315.378 117.753 318.327C117.753 320.901 119.636 322.264 122.134 322.264ZM122.935 319.997C121.648 319.997 120.727 319.409 120.727 318.276C120.727 317.091 121.759 316.597 123.139 316.401C123.949 316.29 125.568 316.085 125.969 315.761V317.304C125.969 318.761 124.793 319.997 122.935 319.997ZM132.148 322H135.233V308.909H132.148V322ZM133.699 307.051C134.679 307.051 135.48 306.301 135.48 305.381C135.48 304.452 134.679 303.702 133.699 303.702C132.71 303.702 131.909 304.452 131.909 305.381C131.909 306.301 132.71 307.051 133.699 307.051ZM141.491 314.33C141.491 312.438 142.633 311.347 144.261 311.347C145.854 311.347 146.809 312.395 146.809 314.142V322H149.894V313.665C149.903 310.528 148.113 308.739 145.411 308.739C143.451 308.739 142.104 309.676 141.508 311.134H141.354V308.909H138.406V322H141.491V314.33ZM158.178 320.969H160.854V316.409H165.414V313.733H160.854V309.173H158.178V313.733H153.619V316.409H158.178V320.969ZM181.009 310.119H184.23C183.693 306.693 180.727 304.307 176.866 304.307C172.298 304.307 168.872 307.665 168.872 313.29C168.872 318.812 172.145 322.239 176.96 322.239C181.281 322.239 184.375 319.46 184.375 314.96V312.864H177.293V315.335H181.315C181.264 317.824 179.602 319.401 176.977 319.401C174.054 319.401 172.051 317.21 172.051 313.256C172.051 309.327 174.088 307.145 176.909 307.145C179.014 307.145 180.446 308.27 181.009 310.119ZM190.381 304.545H187.296V322H190.381V304.545ZM199.264 322.256C203.099 322.256 205.537 319.554 205.537 315.506C205.537 311.449 203.099 308.739 199.264 308.739C195.429 308.739 192.991 311.449 192.991 315.506C192.991 319.554 195.429 322.256 199.264 322.256ZM199.281 319.784C197.159 319.784 196.119 317.892 196.119 315.497C196.119 313.102 197.159 311.185 199.281 311.185C201.369 311.185 202.409 313.102 202.409 315.497C202.409 317.892 201.369 319.784 199.281 319.784ZM208.156 322H211.241V314.304C211.241 312.642 212.494 311.466 214.19 311.466C214.71 311.466 215.357 311.56 215.621 311.645V308.807C215.34 308.756 214.854 308.722 214.513 308.722C213.013 308.722 211.761 309.574 211.283 311.091H211.147V308.909H208.156V322ZM219.987 326.884C222.391 326.884 223.78 325.639 224.521 323.585L229.78 308.926L226.482 308.909L223.456 318.795H223.32L220.303 308.909H217.03L221.777 322.273L221.513 322.98C220.925 324.429 220.038 324.54 218.692 324.156L217.976 326.551C218.393 326.73 219.143 326.884 219.987 326.884Z" fill="#3A4A42"/>
<g clip-path="url(#clip1_48_1344)">
<rect y="342" width="106" height="32" rx="4" fill="#EBF0EE"/>
<path d="M12.8608 362V353.273H16.1335C16.804 353.273 17.3665 353.389 17.821 353.622C18.2784 353.855 18.6236 354.182 18.8565 354.602C19.0923 355.02 19.2102 355.507 19.2102 356.064C19.2102 356.624 19.0909 357.109 18.8523 357.521C18.6165 357.93 18.2685 358.247 17.8082 358.472C17.348 358.693 16.7827 358.804 16.1122 358.804H13.7812V357.491H15.8991C16.2912 357.491 16.6122 357.437 16.8622 357.33C17.1122 357.219 17.2969 357.058 17.4162 356.848C17.5384 356.635 17.5994 356.374 17.5994 356.064C17.5994 355.754 17.5384 355.49 17.4162 355.271C17.294 355.05 17.108 354.882 16.858 354.768C16.608 354.652 16.2855 354.594 15.8906 354.594H14.4418V362H12.8608ZM17.3693 358.045L19.5298 362H17.7656L15.6435 358.045H17.3693ZM25.1292 359.247V355.455H26.6718V362H25.1761V360.837H25.1079C24.9601 361.203 24.7172 361.503 24.3792 361.736C24.0439 361.969 23.6306 362.085 23.1391 362.085C22.7101 362.085 22.3309 361.99 22.0013 361.8C21.6746 361.607 21.4189 361.327 21.2343 360.96C21.0496 360.591 20.9573 360.145 20.9573 359.622V355.455H22.4999V359.384C22.4999 359.798 22.6136 360.128 22.8408 360.372C23.0681 360.616 23.3664 360.739 23.7357 360.739C23.963 360.739 24.1832 360.683 24.3962 360.572C24.6093 360.462 24.784 360.297 24.9204 360.078C25.0596 359.857 25.1292 359.58 25.1292 359.247ZM28.6863 362V353.273H30.2289V356.537H30.2928C30.3723 356.378 30.4846 356.209 30.6294 356.03C30.7743 355.848 30.9704 355.693 31.2175 355.565C31.4647 355.435 31.78 355.369 32.1635 355.369C32.6692 355.369 33.1252 355.499 33.5314 355.757C33.9405 356.013 34.2644 356.392 34.503 356.895C34.7445 357.395 34.8652 358.009 34.8652 358.736C34.8652 359.455 34.7473 360.065 34.5115 360.568C34.2758 361.071 33.9547 361.455 33.5485 361.719C33.1422 361.983 32.682 362.115 32.1678 362.115C31.7928 362.115 31.4817 362.053 31.2346 361.928C30.9874 361.803 30.7885 361.652 30.638 361.476C30.4902 361.297 30.3752 361.128 30.2928 360.969H30.2033V362H28.6863ZM30.199 358.727C30.199 359.151 30.2587 359.521 30.378 359.839C30.5002 360.158 30.6749 360.406 30.9022 360.585C31.1323 360.761 31.4107 360.849 31.7374 360.849C32.0783 360.849 32.3638 360.759 32.5939 360.577C32.824 360.392 32.9973 360.141 33.1138 359.822C33.2331 359.501 33.2928 359.136 33.2928 358.727C33.2928 358.321 33.2346 357.96 33.1181 357.645C33.0016 357.33 32.8283 357.082 32.5982 356.903C32.3681 356.724 32.0812 356.635 31.7374 356.635C31.4079 356.635 31.128 356.722 30.8979 356.895C30.6678 357.068 30.4931 357.311 30.3738 357.624C30.2573 357.936 30.199 358.304 30.199 358.727ZM37.2728 364.455C37.0626 364.455 36.868 364.438 36.689 364.403C36.5129 364.372 36.3723 364.335 36.2671 364.293L36.6251 363.091C36.8495 363.156 37.0498 363.188 37.226 363.185C37.4021 363.182 37.5569 363.126 37.6904 363.018C37.8268 362.913 37.9419 362.737 38.0356 362.49L38.1677 362.136L35.7941 355.455H37.4305L38.939 360.398H39.0072L40.52 355.455H42.1606L39.5399 362.793C39.4177 363.139 39.2558 363.436 39.0541 363.683C38.8524 363.933 38.6052 364.124 38.3126 364.254C38.0228 364.388 37.6762 364.455 37.2728 364.455ZM49.7798 362.128C49.1406 362.128 48.5866 361.987 48.1178 361.706C47.6491 361.425 47.2854 361.031 47.0269 360.526C46.7712 360.02 46.6434 359.429 46.6434 358.753C46.6434 358.077 46.7712 357.484 47.0269 356.976C47.2854 356.467 47.6491 356.072 48.1178 355.791C48.5866 355.51 49.1406 355.369 49.7798 355.369C50.419 355.369 50.9729 355.51 51.4417 355.791C51.9104 356.072 52.2727 356.467 52.5283 356.976C52.7869 357.484 52.9161 358.077 52.9161 358.753C52.9161 359.429 52.7869 360.02 52.5283 360.526C52.2727 361.031 51.9104 361.425 51.4417 361.706C50.9729 361.987 50.419 362.128 49.7798 362.128ZM49.7883 360.892C50.1349 360.892 50.4246 360.797 50.6576 360.607C50.8906 360.413 51.0638 360.155 51.1775 359.831C51.294 359.507 51.3522 359.146 51.3522 358.749C51.3522 358.348 51.294 357.986 51.1775 357.662C51.0638 357.335 50.8906 357.075 50.6576 356.882C50.4246 356.689 50.1349 356.592 49.7883 356.592C49.4332 356.592 49.1377 356.689 48.9019 356.882C48.669 357.075 48.4942 357.335 48.3778 357.662C48.2641 357.986 48.2073 358.348 48.2073 358.749C48.2073 359.146 48.2641 359.507 48.3778 359.831C48.4942 360.155 48.669 360.413 48.9019 360.607C49.1377 360.797 49.4332 360.892 49.7883 360.892ZM56.128 358.165V362H54.5854V355.455H56.0599V356.567H56.1366C56.2871 356.2 56.5272 355.909 56.8567 355.693C57.1891 355.477 57.5996 355.369 58.0883 355.369C58.54 355.369 58.9334 355.466 59.2687 355.659C59.6067 355.852 59.8681 356.132 60.0528 356.499C60.2403 356.865 60.3326 357.31 60.3297 357.832V362H58.7871V358.071C58.7871 357.634 58.6735 357.291 58.4462 357.044C58.2218 356.797 57.9107 356.673 57.513 356.673C57.2431 356.673 57.003 356.733 56.7928 356.852C56.5854 356.969 56.4221 357.138 56.3028 357.359C56.1863 357.581 56.128 357.849 56.128 358.165ZM65.6627 362V353.273H68.9354C69.6059 353.273 70.1684 353.389 70.6229 353.622C71.0803 353.855 71.4255 354.182 71.6584 354.602C71.8942 355.02 72.0121 355.507 72.0121 356.064C72.0121 356.624 71.8928 357.109 71.6541 357.521C71.4184 357.93 71.0703 358.247 70.6101 358.472C70.1499 358.693 69.5845 358.804 68.9141 358.804H66.5831V357.491H68.701C69.0931 357.491 69.4141 357.437 69.6641 357.33C69.9141 357.219 70.0988 357.058 70.2181 356.848C70.3402 356.635 70.4013 356.374 70.4013 356.064C70.4013 355.754 70.3402 355.49 70.2181 355.271C70.0959 355.05 69.9098 354.882 69.6598 354.768C69.4098 354.652 69.0874 354.594 68.6925 354.594H67.2436V362H65.6627ZM70.1712 358.045L72.3317 362H70.5675L68.4453 358.045H70.1712ZM75.6427 362.132C75.2279 362.132 74.8543 362.058 74.522 361.911C74.1924 361.76 73.9311 361.538 73.7379 361.246C73.5475 360.953 73.4524 360.592 73.4524 360.163C73.4524 359.794 73.5205 359.489 73.6569 359.247C73.7933 359.006 73.9793 358.812 74.2151 358.668C74.4509 358.523 74.7166 358.413 75.012 358.339C75.3103 358.263 75.6186 358.207 75.9367 358.173C76.3203 358.134 76.6313 358.098 76.87 358.067C77.1086 358.033 77.2819 357.982 77.3899 357.913C77.5007 357.842 77.5561 357.733 77.5561 357.585V357.56C77.5561 357.239 77.4609 356.99 77.2705 356.814C77.0802 356.638 76.8061 356.55 76.4481 356.55C76.0703 356.55 75.7705 356.632 75.549 356.797C75.3302 356.962 75.1825 357.156 75.1058 357.381L73.6654 357.176C73.7791 356.778 73.9666 356.446 74.2279 356.179C74.4893 355.909 74.8089 355.707 75.1867 355.574C75.5646 355.438 75.9822 355.369 76.4396 355.369C76.7549 355.369 77.0688 355.406 77.3813 355.48C77.6938 355.554 77.9793 355.676 78.2379 355.847C78.4964 356.014 78.7038 356.243 78.86 356.533C79.0191 356.822 79.0987 357.185 79.0987 357.619V362H77.6157V361.101H77.5646C77.4708 361.283 77.3387 361.453 77.1683 361.612C77.0007 361.768 76.789 361.895 76.5333 361.991C76.2805 362.085 75.9836 362.132 75.6427 362.132ZM76.0433 360.999C76.3529 360.999 76.6214 360.937 76.8487 360.815C77.0759 360.69 77.2507 360.526 77.3728 360.321C77.4978 360.116 77.5603 359.893 77.5603 359.652V358.881C77.512 358.92 77.4296 358.957 77.3132 358.991C77.1995 359.026 77.0717 359.055 76.9296 359.081C76.7876 359.107 76.647 359.129 76.5078 359.149C76.3686 359.169 76.2478 359.186 76.1455 359.2C75.9154 359.232 75.7095 359.283 75.5276 359.354C75.3458 359.425 75.2024 359.524 75.0972 359.652C74.9921 359.777 74.9396 359.939 74.9396 360.138C74.9396 360.422 75.0433 360.636 75.2507 360.781C75.458 360.926 75.7222 360.999 76.0433 360.999ZM81.0098 362V355.455H82.5524V362H81.0098ZM81.7854 354.526C81.541 354.526 81.3308 354.445 81.1547 354.283C80.9785 354.118 80.8905 353.92 80.8905 353.69C80.8905 353.457 80.9785 353.26 81.1547 353.098C81.3308 352.933 81.541 352.851 81.7854 352.851C82.0325 352.851 82.2428 352.933 82.416 353.098C82.5922 353.26 82.6803 353.457 82.6803 353.69C82.6803 353.92 82.5922 354.118 82.416 354.283C82.2428 354.445 82.0325 354.526 81.7854 354.526ZM86.0413 353.273V362H84.4987V353.273H86.0413ZM93.1609 357.185L91.7547 357.338C91.7149 357.196 91.6453 357.062 91.5459 356.938C91.4493 356.812 91.3186 356.712 91.1538 356.635C90.989 356.558 90.7873 356.52 90.5487 356.52C90.2277 356.52 89.9578 356.589 89.739 356.729C89.5231 356.868 89.4166 357.048 89.4194 357.27C89.4166 357.46 89.4862 357.615 89.6282 357.734C89.7731 357.854 90.0118 357.952 90.3441 358.028L91.4606 358.267C92.0799 358.401 92.5402 358.612 92.8413 358.902C93.1453 359.192 93.2987 359.571 93.3015 360.04C93.2987 360.452 93.178 360.815 92.9393 361.131C92.7035 361.443 92.3754 361.687 91.9549 361.864C91.5345 362.04 91.0515 362.128 90.5061 362.128C89.7049 362.128 89.0601 361.96 88.5714 361.625C88.0828 361.287 87.7916 360.817 87.6978 360.214L89.2021 360.07C89.2703 360.365 89.4152 360.588 89.6368 360.739C89.8584 360.889 90.1467 360.964 90.5018 360.964C90.8683 360.964 91.1623 360.889 91.3839 360.739C91.6084 360.588 91.7206 360.402 91.7206 360.18C91.7206 359.993 91.6481 359.838 91.5032 359.716C91.3612 359.594 91.1396 359.5 90.8385 359.435L89.722 359.2C89.0941 359.07 88.6297 358.849 88.3285 358.54C88.0274 358.227 87.8782 357.832 87.8811 357.355C87.8782 356.952 87.9876 356.602 88.2092 356.307C88.4336 356.009 88.7447 355.778 89.1424 355.616C89.543 355.452 90.0047 355.369 90.5274 355.369C91.2944 355.369 91.8981 355.533 92.3385 355.859C92.7816 356.186 93.0558 356.628 93.1609 357.185Z" fill="#3A4A42"/>
<rect x="114" y="342" width="50" height="32" rx="4" fill="#EBF0EE"/>
<path d="M134.331 356.217H132.737C132.692 355.956 132.608 355.724 132.486 355.523C132.364 355.318 132.212 355.145 132.03 355.003C131.848 354.861 131.641 354.754 131.408 354.683C131.178 354.609 130.929 354.572 130.662 354.572C130.188 354.572 129.767 354.692 129.401 354.93C129.034 355.166 128.747 355.513 128.54 355.97C128.332 356.425 128.229 356.98 128.229 357.636C128.229 358.304 128.332 358.866 128.54 359.324C128.75 359.778 129.037 360.122 129.401 360.355C129.767 360.585 130.186 360.7 130.658 360.7C130.919 360.7 131.163 360.666 131.391 360.598C131.621 360.527 131.827 360.423 132.009 360.287C132.193 360.151 132.348 359.983 132.473 359.784C132.601 359.585 132.689 359.358 132.737 359.102L134.331 359.111C134.271 359.526 134.142 359.915 133.943 360.278C133.747 360.642 133.49 360.963 133.172 361.241C132.854 361.517 132.482 361.733 132.055 361.889C131.629 362.043 131.156 362.119 130.636 362.119C129.869 362.119 129.185 361.942 128.582 361.587C127.98 361.232 127.506 360.719 127.159 360.048C126.813 359.378 126.639 358.574 126.639 357.636C126.639 356.696 126.814 355.892 127.163 355.224C127.513 354.554 127.989 354.041 128.591 353.686C129.193 353.331 129.875 353.153 130.636 353.153C131.122 353.153 131.574 353.222 131.991 353.358C132.409 353.494 132.781 353.695 133.108 353.959C133.435 354.22 133.703 354.541 133.913 354.922C134.126 355.3 134.266 355.732 134.331 356.217ZM140.882 355.672C140.842 355.3 140.674 355.01 140.379 354.803C140.086 354.595 139.706 354.491 139.237 354.491C138.907 354.491 138.625 354.541 138.389 354.641C138.153 354.74 137.973 354.875 137.848 355.045C137.723 355.216 137.659 355.411 137.656 355.629C137.656 355.811 137.697 355.969 137.779 356.102C137.865 356.236 137.98 356.349 138.125 356.443C138.269 356.534 138.43 356.611 138.606 356.673C138.782 356.736 138.96 356.788 139.139 356.831L139.957 357.036C140.286 357.112 140.603 357.216 140.907 357.347C141.214 357.477 141.488 357.642 141.73 357.841C141.974 358.04 142.167 358.28 142.309 358.561C142.451 358.842 142.522 359.172 142.522 359.55C142.522 360.061 142.392 360.511 142.13 360.901C141.869 361.287 141.491 361.589 140.997 361.808C140.505 362.024 139.91 362.132 139.211 362.132C138.532 362.132 137.943 362.027 137.443 361.817C136.946 361.607 136.556 361.3 136.275 360.896C135.997 360.493 135.846 360.001 135.823 359.422H137.379C137.402 359.726 137.495 359.979 137.66 360.18C137.825 360.382 138.039 360.533 138.304 360.632C138.571 360.732 138.869 360.781 139.198 360.781C139.542 360.781 139.843 360.73 140.102 360.628C140.363 360.523 140.568 360.378 140.715 360.193C140.863 360.006 140.938 359.787 140.941 359.537C140.938 359.31 140.872 359.122 140.741 358.974C140.61 358.824 140.427 358.699 140.191 358.599C139.958 358.497 139.686 358.406 139.373 358.327L138.38 358.071C137.661 357.886 137.093 357.607 136.676 357.232C136.261 356.854 136.054 356.352 136.054 355.727C136.054 355.213 136.193 354.763 136.471 354.376C136.752 353.99 137.135 353.69 137.617 353.477C138.1 353.261 138.647 353.153 139.258 353.153C139.877 353.153 140.42 353.261 140.886 353.477C141.355 353.69 141.723 353.987 141.99 354.368C142.257 354.746 142.394 355.18 142.403 355.672H140.882ZM149.035 355.672C148.995 355.3 148.827 355.01 148.532 354.803C148.239 354.595 147.858 354.491 147.39 354.491C147.06 354.491 146.778 354.541 146.542 354.641C146.306 354.74 146.126 354.875 146.001 355.045C145.876 355.216 145.812 355.411 145.809 355.629C145.809 355.811 145.85 355.969 145.932 356.102C146.018 356.236 146.133 356.349 146.278 356.443C146.422 356.534 146.583 356.611 146.759 356.673C146.935 356.736 147.113 356.788 147.292 356.831L148.11 357.036C148.439 357.112 148.756 357.216 149.06 357.347C149.367 357.477 149.641 357.642 149.883 357.841C150.127 358.04 150.32 358.28 150.462 358.561C150.604 358.842 150.675 359.172 150.675 359.55C150.675 360.061 150.545 360.511 150.283 360.901C150.022 361.287 149.644 361.589 149.15 361.808C148.658 362.024 148.063 362.132 147.364 362.132C146.685 362.132 146.096 362.027 145.596 361.817C145.099 361.607 144.709 361.3 144.428 360.896C144.15 360.493 143.999 360.001 143.976 359.422H145.532C145.555 359.726 145.648 359.979 145.813 360.18C145.978 360.382 146.192 360.533 146.457 360.632C146.724 360.732 147.022 360.781 147.351 360.781C147.695 360.781 147.996 360.73 148.255 360.628C148.516 360.523 148.721 360.378 148.868 360.193C149.016 360.006 149.091 359.787 149.094 359.537C149.091 359.31 149.025 359.122 148.894 358.974C148.763 358.824 148.58 358.699 148.344 358.599C148.111 358.497 147.839 358.406 147.526 358.327L146.533 358.071C145.814 357.886 145.246 357.607 144.829 357.232C144.414 356.854 144.207 356.352 144.207 355.727C144.207 355.213 144.346 354.763 144.624 354.376C144.905 353.99 145.287 353.69 145.77 353.477C146.253 353.261 146.8 353.153 147.411 353.153C148.03 353.153 148.573 353.261 149.039 353.477C149.508 353.69 149.876 353.987 150.143 354.368C150.41 354.746 150.547 355.18 150.556 355.672H149.035Z" fill="#3A4A42"/>
<rect x="172" y="342" width="89" height="32" rx="4" fill="#EBF0EE"/>
<path d="M188.304 353.273H189.872V359.409C189.869 359.972 189.75 360.456 189.514 360.862C189.278 361.266 188.949 361.577 188.526 361.795C188.105 362.011 187.615 362.119 187.055 362.119C186.544 362.119 186.084 362.028 185.675 361.847C185.268 361.662 184.946 361.389 184.707 361.028C184.469 360.668 184.349 360.219 184.349 359.682H185.922C185.925 359.918 185.976 360.121 186.075 360.291C186.178 360.462 186.318 360.592 186.497 360.683C186.676 360.774 186.882 360.82 187.115 360.82C187.368 360.82 187.582 360.767 187.759 360.662C187.935 360.554 188.068 360.395 188.159 360.185C188.253 359.974 188.301 359.716 188.304 359.409V353.273ZM193.763 362.132C193.348 362.132 192.974 362.058 192.642 361.911C192.312 361.76 192.051 361.538 191.858 361.246C191.668 360.953 191.572 360.592 191.572 360.163C191.572 359.794 191.641 359.489 191.777 359.247C191.913 359.006 192.099 358.812 192.335 358.668C192.571 358.523 192.837 358.413 193.132 358.339C193.43 358.263 193.739 358.207 194.057 358.173C194.44 358.134 194.751 358.098 194.99 358.067C195.229 358.033 195.402 357.982 195.51 357.913C195.621 357.842 195.676 357.733 195.676 357.585V357.56C195.676 357.239 195.581 356.99 195.391 356.814C195.2 356.638 194.926 356.55 194.568 356.55C194.19 356.55 193.891 356.632 193.669 356.797C193.45 356.962 193.302 357.156 193.226 357.381L191.785 357.176C191.899 356.778 192.087 356.446 192.348 356.179C192.609 355.909 192.929 355.707 193.307 355.574C193.685 355.438 194.102 355.369 194.56 355.369C194.875 355.369 195.189 355.406 195.501 355.48C195.814 355.554 196.099 355.676 196.358 355.847C196.616 356.014 196.824 356.243 196.98 356.533C197.139 356.822 197.219 357.185 197.219 357.619V362H195.736V361.101H195.685C195.591 361.283 195.459 361.453 195.288 361.612C195.121 361.768 194.909 361.895 194.653 361.991C194.4 362.085 194.104 362.132 193.763 362.132ZM194.163 360.999C194.473 360.999 194.741 360.937 194.969 360.815C195.196 360.69 195.371 360.526 195.493 360.321C195.618 360.116 195.68 359.893 195.68 359.652V358.881C195.632 358.92 195.55 358.957 195.433 358.991C195.32 359.026 195.192 359.055 195.05 359.081C194.908 359.107 194.767 359.129 194.628 359.149C194.489 359.169 194.368 359.186 194.266 359.2C194.035 359.232 193.829 359.283 193.648 359.354C193.466 359.425 193.322 359.524 193.217 359.652C193.112 359.777 193.06 359.939 193.06 360.138C193.06 360.422 193.163 360.636 193.371 360.781C193.578 360.926 193.842 360.999 194.163 360.999ZM204.742 355.455L202.411 362H200.707L198.376 355.455H200.02L201.525 360.317H201.593L203.101 355.455H204.742ZM207.866 362.132C207.451 362.132 207.077 362.058 206.745 361.911C206.415 361.76 206.154 361.538 205.961 361.246C205.77 360.953 205.675 360.592 205.675 360.163C205.675 359.794 205.743 359.489 205.88 359.247C206.016 359.006 206.202 358.812 206.438 358.668C206.674 358.523 206.939 358.413 207.235 358.339C207.533 358.263 207.841 358.207 208.16 358.173C208.543 358.134 208.854 358.098 209.093 358.067C209.331 358.033 209.505 357.982 209.613 357.913C209.723 357.842 209.779 357.733 209.779 357.585V357.56C209.779 357.239 209.684 356.99 209.493 356.814C209.303 356.638 209.029 356.55 208.671 356.55C208.293 356.55 207.993 356.632 207.772 356.797C207.553 356.962 207.405 357.156 207.329 357.381L205.888 357.176C206.002 356.778 206.189 356.446 206.451 356.179C206.712 355.909 207.032 355.707 207.41 355.574C207.787 355.438 208.205 355.369 208.662 355.369C208.978 355.369 209.292 355.406 209.604 355.48C209.917 355.554 210.202 355.676 210.461 355.847C210.719 356.014 210.927 356.243 211.083 356.533C211.242 356.822 211.321 357.185 211.321 357.619V362H209.839V361.101H209.787C209.694 361.283 209.562 361.453 209.391 361.612C209.223 361.768 209.012 361.895 208.756 361.991C208.503 362.085 208.206 362.132 207.866 362.132ZM208.266 360.999C208.576 360.999 208.844 360.937 209.071 360.815C209.299 360.69 209.473 360.526 209.596 360.321C209.721 360.116 209.783 359.893 209.783 359.652V358.881C209.735 358.92 209.652 358.957 209.536 358.991C209.422 359.026 209.294 359.055 209.152 359.081C209.01 359.107 208.87 359.129 208.731 359.149C208.591 359.169 208.471 359.186 208.368 359.2C208.138 359.232 207.932 359.283 207.75 359.354C207.569 359.425 207.425 359.524 207.32 359.652C207.215 359.777 207.162 359.939 207.162 360.138C207.162 360.422 207.266 360.636 207.473 360.781C207.681 360.926 207.945 360.999 208.266 360.999ZM218.044 355.672C218.004 355.3 217.836 355.01 217.541 354.803C217.248 354.595 216.868 354.491 216.399 354.491C216.069 354.491 215.787 354.541 215.551 354.641C215.315 354.74 215.135 354.875 215.01 355.045C214.885 355.216 214.821 355.411 214.818 355.629C214.818 355.811 214.859 355.969 214.941 356.102C215.027 356.236 215.142 356.349 215.287 356.443C215.431 356.534 215.592 356.611 215.768 356.673C215.944 356.736 216.122 356.788 216.301 356.831L217.119 357.036C217.449 357.112 217.765 357.216 218.069 357.347C218.376 357.477 218.65 357.642 218.892 357.841C219.136 358.04 219.329 358.28 219.471 358.561C219.613 358.842 219.684 359.172 219.684 359.55C219.684 360.061 219.554 360.511 219.292 360.901C219.031 361.287 218.653 361.589 218.159 361.808C217.667 362.024 217.072 362.132 216.373 362.132C215.694 362.132 215.105 362.027 214.605 361.817C214.108 361.607 213.718 361.3 213.437 360.896C213.159 360.493 213.008 360.001 212.985 359.422H214.541C214.564 359.726 214.657 359.979 214.822 360.18C214.987 360.382 215.201 360.533 215.466 360.632C215.733 360.732 216.031 360.781 216.36 360.781C216.704 360.781 217.005 360.73 217.264 360.628C217.525 360.523 217.73 360.378 217.878 360.193C218.025 360.006 218.101 359.787 218.103 359.537C218.101 359.31 218.034 359.122 217.903 358.974C217.772 358.824 217.589 358.699 217.353 358.599C217.12 358.497 216.848 358.406 216.535 358.327L215.542 358.071C214.824 357.886 214.255 357.607 213.838 357.232C213.423 356.854 213.216 356.352 213.216 355.727C213.216 355.213 213.355 354.763 213.633 354.376C213.914 353.99 214.297 353.69 214.779 353.477C215.262 353.261 215.809 353.153 216.42 353.153C217.039 353.153 217.582 353.261 218.048 353.477C218.517 353.69 218.885 353.987 219.152 354.368C219.419 354.746 219.556 355.18 219.565 355.672H218.044ZM224.241 362.128C223.587 362.128 223.026 361.984 222.557 361.697C222.092 361.411 221.732 361.014 221.479 360.509C221.229 360 221.104 359.415 221.104 358.753C221.104 358.088 221.232 357.501 221.488 356.993C221.744 356.482 222.104 356.084 222.57 355.8C223.039 355.513 223.593 355.369 224.232 355.369C224.763 355.369 225.234 355.467 225.643 355.663C226.055 355.857 226.383 356.131 226.627 356.486C226.871 356.838 227.011 357.25 227.045 357.722H225.57C225.511 357.406 225.369 357.143 225.144 356.933C224.923 356.72 224.626 356.614 224.253 356.614C223.938 356.614 223.661 356.699 223.423 356.869C223.184 357.037 222.998 357.278 222.864 357.594C222.734 357.909 222.668 358.287 222.668 358.727C222.668 359.173 222.734 359.557 222.864 359.878C222.995 360.196 223.178 360.442 223.414 360.615C223.653 360.786 223.932 360.871 224.253 360.871C224.481 360.871 224.684 360.828 224.863 360.743C225.045 360.655 225.197 360.528 225.319 360.364C225.441 360.199 225.525 359.999 225.57 359.763H227.045C227.008 360.226 226.871 360.636 226.636 360.994C226.4 361.349 226.079 361.628 225.673 361.83C225.266 362.028 224.789 362.128 224.241 362.128ZM228.671 362V355.455H230.167V356.545H230.235C230.355 356.168 230.559 355.876 230.849 355.672C231.142 355.464 231.475 355.361 231.85 355.361C231.936 355.361 232.031 355.365 232.136 355.374C232.244 355.379 232.333 355.389 232.404 355.403V356.822C232.339 356.8 232.235 356.78 232.093 356.763C231.954 356.743 231.819 356.733 231.688 356.733C231.407 356.733 231.154 356.794 230.93 356.916C230.708 357.036 230.534 357.202 230.406 357.415C230.278 357.628 230.214 357.874 230.214 358.152V362H228.671ZM233.789 362V355.455H235.332V362H233.789ZM234.565 354.526C234.32 354.526 234.11 354.445 233.934 354.283C233.758 354.118 233.67 353.92 233.67 353.69C233.67 353.457 233.758 353.26 233.934 353.098C234.11 352.933 234.32 352.851 234.565 352.851C234.812 352.851 235.022 352.933 235.195 353.098C235.372 353.26 235.46 353.457 235.46 353.69C235.46 353.92 235.372 354.118 235.195 354.283C235.022 354.445 234.812 354.526 234.565 354.526ZM237.278 364.455V355.455H238.795V356.537H238.885C238.964 356.378 239.076 356.209 239.221 356.03C239.366 355.848 239.562 355.693 239.809 355.565C240.056 355.435 240.372 355.369 240.755 355.369C241.261 355.369 241.717 355.499 242.123 355.757C242.532 356.013 242.856 356.392 243.095 356.895C243.336 357.395 243.457 358.009 243.457 358.736C243.457 359.455 243.339 360.065 243.103 360.568C242.868 361.071 242.547 361.455 242.14 361.719C241.734 361.983 241.274 362.115 240.76 362.115C240.385 362.115 240.074 362.053 239.826 361.928C239.579 361.803 239.38 361.652 239.23 361.476C239.082 361.297 238.967 361.128 238.885 360.969H238.821V364.455H237.278ZM238.791 358.727C238.791 359.151 238.851 359.521 238.97 359.839C239.092 360.158 239.267 360.406 239.494 360.585C239.724 360.761 240.003 360.849 240.329 360.849C240.67 360.849 240.956 360.759 241.186 360.577C241.416 360.392 241.589 360.141 241.706 359.822C241.825 359.501 241.885 359.136 241.885 358.727C241.885 358.321 241.826 357.96 241.71 357.645C241.593 357.33 241.42 357.082 241.19 356.903C240.96 356.724 240.673 356.635 240.329 356.635C240 356.635 239.72 356.722 239.49 356.895C239.26 357.068 239.085 357.311 238.966 357.624C238.849 357.936 238.791 358.304 238.791 358.727ZM248.407 355.455V356.648H244.644V355.455H248.407ZM245.573 353.886H247.115V360.031C247.115 360.239 247.147 360.398 247.209 360.509C247.274 360.616 247.36 360.69 247.465 360.73C247.57 360.77 247.686 360.79 247.814 360.79C247.911 360.79 247.999 360.783 248.078 360.768C248.161 360.754 248.223 360.741 248.266 360.73L248.526 361.936C248.443 361.964 248.326 361.996 248.172 362.03C248.022 362.064 247.837 362.084 247.618 362.089C247.232 362.101 246.884 362.043 246.574 361.915C246.265 361.784 246.019 361.582 245.837 361.31C245.658 361.037 245.57 360.696 245.573 360.287V353.886Z" fill="#3A4A42"/>
<rect x="269" y="342" width="60" height="32" rx="4" fill="#EBF0EE"/>
<path d="M281.861 362V353.273H283.442V356.967H287.486V353.273H289.071V362H287.486V358.293H283.442V362H281.861ZM290.767 354.598V353.273H297.73V354.598H295.033V362H293.464V354.598H290.767ZM299.432 353.273H301.367L303.958 359.597H304.06L306.651 353.273H308.586V362H307.069V356.004H306.988L304.576 361.974H303.442L301.03 355.991H300.949V362H299.432V353.273ZM310.667 362V353.273H312.248V360.675H316.092V362H310.667Z" fill="#3A4A42"/>
</g>
<rect x="104" y="403" width="122" height="48" rx="4" fill="#36B37F"/>
<path d="M124.3 423.884C124.235 423.313 123.97 422.87 123.503 422.556C123.036 422.238 122.448 422.079 121.74 422.079C121.233 422.079 120.794 422.16 120.424 422.321C120.054 422.478 119.766 422.695 119.561 422.973C119.359 423.246 119.259 423.558 119.259 423.908C119.259 424.202 119.327 424.456 119.464 424.669C119.605 424.882 119.788 425.061 120.013 425.206C120.243 425.347 120.488 425.466 120.75 425.562C121.011 425.655 121.263 425.732 121.505 425.792L122.712 426.106C123.106 426.202 123.511 426.333 123.925 426.498C124.34 426.663 124.724 426.881 125.078 427.15C125.433 427.42 125.718 427.754 125.936 428.152C126.157 428.551 126.268 429.028 126.268 429.583C126.268 430.283 126.087 430.905 125.724 431.449C125.366 431.992 124.845 432.42 124.161 432.734C123.481 433.048 122.658 433.205 121.692 433.205C120.766 433.205 119.965 433.058 119.289 432.765C118.613 432.471 118.084 432.054 117.701 431.515C117.319 430.972 117.108 430.328 117.067 429.583H118.939C118.975 430.03 119.12 430.402 119.373 430.7C119.631 430.994 119.959 431.213 120.357 431.358C120.76 431.499 121.201 431.569 121.68 431.569C122.207 431.569 122.676 431.487 123.086 431.322C123.501 431.153 123.827 430.919 124.064 430.621C124.302 430.32 124.42 429.967 124.42 429.565C124.42 429.199 124.316 428.899 124.106 428.665C123.901 428.432 123.621 428.239 123.267 428.086C122.917 427.933 122.521 427.798 122.078 427.681L120.617 427.283C119.627 427.013 118.842 426.617 118.263 426.094C117.687 425.571 117.399 424.878 117.399 424.017C117.399 423.305 117.593 422.683 117.979 422.152C118.365 421.62 118.889 421.208 119.549 420.914C120.209 420.616 120.953 420.467 121.782 420.467C122.619 420.467 123.358 420.614 123.998 420.908C124.642 421.202 125.149 421.606 125.519 422.121C125.889 422.633 126.083 423.22 126.099 423.884H124.3ZM132.858 433.187C131.945 433.187 131.158 432.992 130.498 432.602C129.842 432.207 129.335 431.654 128.977 430.941C128.622 430.225 128.445 429.386 128.445 428.424C128.445 427.474 128.622 426.637 128.977 425.913C129.335 425.188 129.834 424.623 130.474 424.216C131.118 423.81 131.87 423.607 132.732 423.607C133.255 423.607 133.762 423.693 134.253 423.866C134.744 424.039 135.185 424.311 135.575 424.681C135.965 425.051 136.273 425.532 136.499 426.124C136.724 426.712 136.837 427.426 136.837 428.267V428.907H129.466V427.555H135.068C135.068 427.08 134.971 426.659 134.778 426.293C134.585 425.923 134.313 425.631 133.963 425.418C133.617 425.204 133.211 425.098 132.744 425.098C132.237 425.098 131.794 425.222 131.416 425.472C131.041 425.717 130.751 426.039 130.546 426.438C130.345 426.832 130.244 427.261 130.244 427.724V428.78C130.244 429.4 130.353 429.927 130.57 430.362C130.792 430.797 131.1 431.129 131.494 431.358C131.888 431.583 132.349 431.696 132.876 431.696C133.219 431.696 133.53 431.648 133.812 431.551C134.094 431.451 134.337 431.302 134.543 431.104C134.748 430.907 134.905 430.664 135.014 430.374L136.722 430.682C136.585 431.185 136.34 431.626 135.985 432.004C135.635 432.378 135.195 432.67 134.663 432.879C134.136 433.085 133.534 433.187 132.858 433.187ZM143.346 433.187C142.432 433.187 141.645 432.992 140.985 432.602C140.329 432.207 139.822 431.654 139.464 430.941C139.11 430.225 138.933 429.386 138.933 428.424C138.933 427.474 139.11 426.637 139.464 425.913C139.822 425.188 140.321 424.623 140.961 424.216C141.605 423.81 142.358 423.607 143.219 423.607C143.742 423.607 144.249 423.693 144.74 423.866C145.231 424.039 145.672 424.311 146.063 424.681C146.453 425.051 146.761 425.532 146.986 426.124C147.212 426.712 147.324 427.426 147.324 428.267V428.907H139.953V427.555H145.555C145.555 427.08 145.459 426.659 145.266 426.293C145.072 425.923 144.801 425.631 144.451 425.418C144.105 425.204 143.698 425.098 143.231 425.098C142.724 425.098 142.281 425.222 141.903 425.472C141.529 425.717 141.239 426.039 141.034 426.438C140.833 426.832 140.732 427.261 140.732 427.724V428.78C140.732 429.4 140.841 429.927 141.058 430.362C141.279 430.797 141.587 431.129 141.982 431.358C142.376 431.583 142.837 431.696 143.364 431.696C143.706 431.696 144.018 431.648 144.3 431.551C144.581 431.451 144.825 431.302 145.03 431.104C145.235 430.907 145.392 430.664 145.501 430.374L147.21 430.682C147.073 431.185 146.827 431.626 146.473 432.004C146.123 432.378 145.682 432.67 145.151 432.879C144.624 433.085 144.022 433.187 143.346 433.187ZM154.846 436.477V423.727H156.609V425.23H156.76C156.864 425.037 157.015 424.814 157.212 424.56C157.41 424.307 157.683 424.085 158.034 423.896C158.384 423.703 158.846 423.607 159.422 423.607C160.171 423.607 160.839 423.796 161.426 424.174C162.014 424.552 162.475 425.098 162.809 425.81C163.147 426.522 163.316 427.38 163.316 428.382C163.316 429.384 163.149 430.243 162.815 430.96C162.481 431.672 162.022 432.221 161.438 432.608C160.855 432.99 160.189 433.181 159.44 433.181C158.877 433.181 158.416 433.087 158.058 432.897C157.703 432.708 157.426 432.487 157.225 432.233C157.023 431.98 156.868 431.754 156.76 431.557H156.651V436.477H154.846ZM156.615 428.364C156.615 429.016 156.709 429.587 156.899 430.078C157.088 430.569 157.361 430.953 157.72 431.231C158.078 431.505 158.516 431.642 159.036 431.642C159.575 431.642 160.026 431.499 160.388 431.213C160.75 430.923 161.024 430.531 161.209 430.036C161.398 429.541 161.493 428.983 161.493 428.364C161.493 427.752 161.4 427.203 161.215 426.716C161.034 426.229 160.76 425.844 160.394 425.562C160.032 425.281 159.579 425.14 159.036 425.14C158.512 425.14 158.07 425.275 157.708 425.544C157.349 425.814 157.078 426.19 156.893 426.673C156.707 427.156 156.615 427.72 156.615 428.364ZM165.848 433V423.727H167.593V425.2H167.689C167.858 424.701 168.156 424.309 168.583 424.023C169.014 423.733 169.501 423.588 170.044 423.588C170.157 423.588 170.289 423.592 170.442 423.6C170.599 423.609 170.722 423.619 170.811 423.631V425.357C170.738 425.337 170.609 425.315 170.424 425.291C170.239 425.263 170.054 425.249 169.869 425.249C169.442 425.249 169.062 425.339 168.728 425.52C168.398 425.697 168.136 425.945 167.943 426.263C167.75 426.577 167.653 426.935 167.653 427.337V433H165.848ZM176.456 433.187C175.587 433.187 174.829 432.988 174.181 432.589C173.533 432.191 173.03 431.634 172.671 430.917C172.313 430.201 172.134 429.364 172.134 428.406C172.134 427.444 172.313 426.603 172.671 425.882C173.03 425.162 173.533 424.603 174.181 424.204C174.829 423.806 175.587 423.607 176.456 423.607C177.326 423.607 178.084 423.806 178.732 424.204C179.38 424.603 179.883 425.162 180.242 425.882C180.6 426.603 180.779 427.444 180.779 428.406C180.779 429.364 180.6 430.201 180.242 430.917C179.883 431.634 179.38 432.191 178.732 432.589C178.084 432.988 177.326 433.187 176.456 433.187ZM176.463 431.672C177.026 431.672 177.493 431.523 177.863 431.225C178.233 430.927 178.507 430.531 178.684 430.036C178.865 429.541 178.956 428.996 178.956 428.4C178.956 427.808 178.865 427.265 178.684 426.77C178.507 426.271 178.233 425.87 177.863 425.569C177.493 425.267 177.026 425.116 176.463 425.116C175.895 425.116 175.424 425.267 175.05 425.569C174.68 425.87 174.404 426.271 174.223 426.77C174.046 427.265 173.957 427.808 173.957 428.4C173.957 428.996 174.046 429.541 174.223 430.036C174.404 430.531 174.68 430.927 175.05 431.225C175.424 431.523 175.895 431.672 176.463 431.672ZM183.304 423.727H185.109V433.604C185.109 434.223 184.996 434.747 184.771 435.173C184.549 435.6 184.219 435.924 183.781 436.145C183.346 436.367 182.809 436.477 182.169 436.477C182.104 436.477 182.044 436.477 181.988 436.477C181.927 436.477 181.865 436.475 181.801 436.471V434.92C181.857 434.92 181.907 434.92 181.951 434.92C181.992 434.92 182.038 434.92 182.09 434.92C182.517 434.92 182.825 434.805 183.014 434.576C183.207 434.35 183.304 434.022 183.304 433.592V423.727ZM184.197 422.297C183.883 422.297 183.614 422.192 183.388 421.983C183.167 421.769 183.056 421.516 183.056 421.222C183.056 420.924 183.167 420.671 183.388 420.461C183.614 420.248 183.883 420.141 184.197 420.141C184.511 420.141 184.779 420.248 185 420.461C185.225 420.671 185.338 420.924 185.338 421.222C185.338 421.516 185.225 421.769 185 421.983C184.779 422.192 184.511 422.297 184.197 422.297ZM192.044 433.187C191.13 433.187 190.343 432.992 189.683 432.602C189.027 432.207 188.52 431.654 188.162 430.941C187.808 430.225 187.631 429.386 187.631 428.424C187.631 427.474 187.808 426.637 188.162 425.913C188.52 425.188 189.019 424.623 189.659 424.216C190.303 423.81 191.056 423.607 191.917 423.607C192.44 423.607 192.947 423.693 193.438 423.866C193.929 424.039 194.37 424.311 194.76 424.681C195.151 425.051 195.458 425.532 195.684 426.124C195.909 426.712 196.022 427.426 196.022 428.267V428.907H188.651V427.555H194.253C194.253 427.08 194.157 426.659 193.963 426.293C193.77 425.923 193.498 425.631 193.148 425.418C192.802 425.204 192.396 425.098 191.929 425.098C191.422 425.098 190.979 425.222 190.601 425.472C190.226 425.717 189.937 426.039 189.731 426.438C189.53 426.832 189.43 427.261 189.43 427.724V428.78C189.43 429.4 189.538 429.927 189.756 430.362C189.977 430.797 190.285 431.129 190.679 431.358C191.074 431.583 191.534 431.696 192.062 431.696C192.404 431.696 192.716 431.648 192.997 431.551C193.279 431.451 193.523 431.302 193.728 431.104C193.933 430.907 194.09 430.664 194.199 430.374L195.907 430.682C195.77 431.185 195.525 431.626 195.171 432.004C194.821 432.378 194.38 432.67 193.849 432.879C193.321 433.085 192.72 433.187 192.044 433.187ZM202.441 433.187C201.543 433.187 200.77 432.984 200.122 432.577C199.478 432.167 198.983 431.601 198.637 430.881C198.291 430.161 198.118 429.336 198.118 428.406C198.118 427.464 198.295 426.633 198.649 425.913C199.004 425.188 199.503 424.623 200.147 424.216C200.79 423.81 201.549 423.607 202.422 423.607C203.127 423.607 203.755 423.737 204.306 423.999C204.857 424.257 205.302 424.619 205.64 425.086C205.982 425.552 206.185 426.098 206.25 426.722H204.493C204.397 426.287 204.175 425.913 203.829 425.599C203.487 425.285 203.028 425.128 202.453 425.128C201.95 425.128 201.509 425.261 201.131 425.526C200.756 425.788 200.464 426.162 200.255 426.649C200.046 427.132 199.941 427.704 199.941 428.364C199.941 429.04 200.044 429.623 200.249 430.114C200.454 430.605 200.744 430.986 201.118 431.255C201.497 431.525 201.942 431.66 202.453 431.66C202.795 431.66 203.105 431.597 203.382 431.473C203.664 431.344 203.899 431.161 204.089 430.923C204.282 430.686 204.417 430.4 204.493 430.066H206.25C206.185 430.666 205.99 431.201 205.664 431.672C205.338 432.143 204.902 432.513 204.354 432.783C203.811 433.052 203.173 433.187 202.441 433.187ZM213.019 423.727V425.176H207.954V423.727H213.019ZM209.312 421.506H211.117V430.277C211.117 430.627 211.169 430.891 211.274 431.068C211.379 431.241 211.513 431.36 211.678 431.424C211.847 431.485 212.031 431.515 212.228 431.515C212.373 431.515 212.499 431.505 212.608 431.485C212.717 431.465 212.801 431.449 212.862 431.436L213.188 432.928C213.083 432.968 212.934 433.008 212.741 433.048C212.548 433.093 212.306 433.117 212.017 433.121C211.542 433.129 211.099 433.044 210.688 432.867C210.278 432.69 209.946 432.416 209.692 432.046C209.439 431.676 209.312 431.211 209.312 430.652V421.506Z" fill="white"/>
</g>
<defs>
<clipPath id="clip0_48_1344">
<path d="M1 261C1 256.582 4.58172 253 9 253H320C324.418 253 328 256.582 328 261V467C328 471.418 324.418 475 320 475H9C4.58173 475 1 471.418 1 467V261Z" fill="white"/>
</clipPath>
<clipPath id="clip1_48_1344">
<rect width="329" height="32" fill="white" transform="translate(0 342)"/>
</clipPath>
</defs>
</svg>
