<svg width="383" height="413" viewBox="0 0 383 413" fill="none" xmlns="http://www.w3.org/2000/svg">
<g clip-path="url(#clip0_34_2121)">
<path d="M24.2714 163.972L142.144 42.284L313.885 84.937L195.325 206.588L24.2714 163.972Z" fill="#C5E9DA" stroke="#36B37E" stroke-width="2.29137" stroke-miterlimit="10" stroke-linejoin="round"/>
<path d="M195.326 206.588L313.885 84.9373L350.506 252.182L240.227 371.122L195.326 206.588Z" fill="white" stroke="#36B37E" stroke-width="2.29137" stroke-miterlimit="10" stroke-linejoin="round"/>
<path d="M195.326 206.587L123.12 270.038L240.227 371.121L195.326 206.587Z" fill="white" stroke="#36B37E" stroke-width="2.29137" stroke-miterlimit="10" stroke-linejoin="round"/>
<path d="M123.12 270.038L24.2715 163.973L195.325 206.588L123.12 270.038Z" fill="white" stroke="#36B37E" stroke-width="2.29137" stroke-miterlimit="10" stroke-linejoin="round"/>
<path d="M240.227 371.122L68.1419 324.729L123.12 270.039L240.227 371.122Z" fill="#C5E9DA" stroke="#36B37E" stroke-width="2.29137" stroke-miterlimit="10" stroke-linejoin="round"/>
<path d="M24.2715 163.973L68.1419 324.729L123.12 270.038L24.2715 163.973Z" fill="white" stroke="#36B37E" stroke-width="2.29137" stroke-miterlimit="10" stroke-linejoin="round"/>
<path d="M159.118 238.341L180.98 219.296L159.118 238.341Z" fill="#644DF2"/>
<path d="M176.226 201.878L180.98 219.297L195.326 206.587L176.226 201.878Z" fill="#36B37E"/>
<path d="M176.226 201.878L292.61 79.6937L263.112 72.4101L147.205 194.69L176.226 201.878Z" fill="#36B37E"/>
<path d="M125.396 189.141L241.78 66.9564L212.282 59.6728L96.3754 181.952L125.396 189.141Z" fill="#36B37E"/>
<path d="M125.396 189.141L143.036 253.779L159.118 238.341L147.205 194.689L125.396 189.141Z" fill="#36B37E"/>
<path d="M96.3755 181.953L119.284 265.899L68.8868 211.779L58.1196 172.324L96.3755 181.953Z" fill="#36B37E"/>
<path d="M58.1198 172.324L75.9562 155.055L41.3066 146.245L24.2715 163.973L58.1198 172.324Z" fill="#172B4D"/>
<path d="M112.686 164.874L129.301 147.261L91.5222 137.728L74.4298 155.245L112.686 164.874Z" fill="#172B4D"/>
<path d="M91.5223 137.728L109.359 120.458L74.7092 111.649L57.6168 129.166L91.5223 137.728Z" fill="#172B4D"/>
<path d="M118.523 274.676L123.12 270.039L85.7148 329.63L68.1419 324.729L118.523 274.676Z" fill="#172B4D"/>
<path d="M325.398 137.041L303.632 160.57L312.453 197.85L333.646 174.703L325.398 137.041Z" fill="#36B37E"/>
<path d="M310.601 190.237L316.692 218.34L295.498 241.486L288.93 213.288L217.776 288.854C217.776 288.854 237.249 360.208 240.227 371.121C243.205 382.034 350.563 252.391 350.563 252.391L331.966 167.719L310.601 190.237Z" fill="#172B4D"/>
</g>
<defs>
<clipPath id="clip0_34_2121">
<rect width="302.379" height="345.234" fill="white" transform="translate(0.19873 79.8936) rotate(-15.2643)"/>
</clipPath>
</defs>
</svg>
