<svg width="1440" height="497" viewBox="0 0 1440 497" fill="none" xmlns="http://www.w3.org/2000/svg">
<g clip-path="url(#clip0_1_468)">
<path d="M1317.28 489.708L1498.94 460.478L1599.49 444.299L1543.27 385.507L1278.94 428.039L1287.27 455.577L1317.28 489.708Z" fill="#172B4D"/>
<path d="M1480.62 8.95481L1534.68 41.5089L1384.47 465.605L1317.28 489.708L1287.27 455.577L1278.94 428.04L1377.52 185.972L1401.46 163.786L1391.81 140.816L1436.16 27.567L1480.62 8.95481Z" fill="white"/>
<mask id="mask0_1_468" style="mask-type:alpha" maskUnits="userSpaceOnUse" x="1278" y="8" width="257" height="482">
<path d="M1480.62 8.95481L1534.68 41.5089L1384.47 465.605L1317.28 489.708L1287.27 455.577L1278.94 428.04L1377.52 185.972L1401.46 163.786L1391.81 140.816L1436.16 27.567L1480.62 8.95481Z" fill="white"/>
</mask>
<g mask="url(#mask0_1_468)">
<path d="M1369.77 228.931L1377.26 207.099L1398.3 203.943L1405.45 182.854L1384.63 185.974L1391.85 165.331L1371 168.228L1363.37 189.166L1355.58 210.587L1333.65 213.887L1325.3 236.086L1302.55 239.976L1293.67 263.177L1316.84 258.991L1339.59 255.1L1347.65 232.49L1369.77 228.931Z" fill="#C5E9DA"/>
<path d="M1391.18 225.256L1412.18 221.877L1419.08 200.6L1398.3 203.943L1391.18 225.256Z" fill="#36B37E"/>
<path d="M1361.87 251.059L1383.73 247.312L1391.18 225.257L1369.77 228.932L1361.87 251.059Z" fill="#36B37E"/>
<path d="M1376.12 269.849L1397.95 265.879L1405.14 243.637L1383.73 247.312L1376.12 269.849Z" fill="#172B4D"/>
<path d="M1353.88 274.115L1361.87 251.059L1339.59 255.101L1331.17 278.229L1322.62 302.064L1345.72 297.431L1368.4 293.094L1376.12 269.85L1353.88 274.115Z" fill="#172B4D"/>
<path d="M1412.26 162.506L1405.45 182.854L1425.82 179.805L1419.08 200.6L1439.45 197.551L1446 177.016L1452.18 157L1432.44 159.717L1438.88 139.888L1445.2 120.766L1425.62 123L1419.11 142.382L1398.93 145.171L1391.85 165.331L1412.26 162.506Z" fill="#36B37E"/>
<path d="M1405.59 125.307L1385.37 127.872L1378.26 147.809L1398.93 145.172L1405.59 125.307Z" fill="#172B4D"/>
<path d="M1412.18 221.877L1405.14 243.637L1426.11 240.034L1446.59 236.279L1453.04 215.074L1459.33 194.352L1439.45 197.551L1432.96 218.533L1412.18 221.877Z" fill="#36B37E"/>
<path d="M1412.2 284.671L1419.33 261.981L1397.95 265.88L1390.41 288.864L1412.2 284.671Z" fill="#36B37E"/>
<path d="M1360.3 316.857L1382.73 312.332L1390.41 288.864L1368.4 293.094L1360.3 316.857Z" fill="#36B37E"/>
<path d="M1378.26 147.809L1357.37 150.482L1349.67 170.974L1371 168.228L1378.26 147.809Z" fill="#36B37E"/>
</g>
<path d="M1480.62 8.95481L1317.28 489.708L1384.47 465.605L1534.68 41.5089L1480.62 8.95481Z" fill="#C5E9DA"/>
<path d="M1480.62 8.95481L1534.68 41.5089L1384.47 465.605L1317.28 489.708L1287.27 455.577L1278.94 428.04L1377.52 185.972L1401.46 163.785L1391.81 140.816L1436.16 27.567L1480.62 8.95481Z" stroke="#36B37E" stroke-width="1.57158" stroke-miterlimit="10" stroke-linejoin="round"/>
<path d="M1422.39 179.899L1443.32 196.011L1415.39 200.506L1422.39 179.899Z" fill="white"/>
<path d="M1480.16 195.585L1443.32 196.012L1422.39 179.899L1401.46 163.786" stroke="#36B37E" stroke-width="1.57158" stroke-miterlimit="10" stroke-linejoin="round"/>
<path d="M1443.32 196.011L1415.39 200.505L1387.28 283.639" stroke="#36B37E" stroke-width="1.57158" stroke-miterlimit="10" stroke-linejoin="round"/>
<path d="M1515.59 95.2303L1469.12 42.891L1425.44 54.9604" stroke="#36B37E" stroke-width="1.57158" stroke-miterlimit="10" stroke-linejoin="round"/>
<path d="M1438.37 51.2758L1429.18 45.4212" stroke="#36B37E" stroke-width="1.57158" stroke-miterlimit="10" stroke-linejoin="round"/>
<path d="M1380.28 304.246L1344.02 268.369L1278.94 428.039L1287.27 455.577L1317.28 489.708L1380.28 304.246Z" fill="white" stroke="#36B37E" stroke-width="1.57158" stroke-miterlimit="10" stroke-linejoin="round"/>
<path d="M1435.34 324.492L1376.08 316.61L1371.33 295.603L1382.46 300.687L1435.34 324.492Z" fill="#172B4D"/>
</g>
<g clip-path="url(#clip1_1_468)">
<path d="M118.599 386.792L20.9609 391.078C20.6 391.078 20.0582 391.26 19.6964 391.621L-12.8637 424.148C-13.2255 424.51 -13.4073 425.051 -13.409 425.773L-12.0396 456.81C-12.0422 457.893 -11.1421 458.794 -9.87844 458.612L73.8756 449.473C74.4175 449.291 74.9592 449.11 75.321 448.749L93.4325 421.294L93.6133 421.114L120.395 390.038C121.301 388.773 120.223 386.609 118.599 386.792Z" fill="#172B4D"/>
<path d="M79.1709 215.281L-30.771 223.937L-59.2615 267.881L-31.8518 383.44L0.593824 408.636L64.3491 403.633L75.942 370.449L108.733 334.451L79.1709 215.281Z" fill="white" stroke="#36B37E" stroke-width="1.55764" stroke-miterlimit="10" stroke-linejoin="round"/>
<path d="M75.942 370.449L17.8668 267.162L79.1709 215.281L108.733 334.451L75.942 370.449Z" fill="#C5E9DA" stroke="#36B37E" stroke-width="1.55764" stroke-miterlimit="10" stroke-linejoin="round"/>
<path d="M64.3493 403.634L49.5947 323.319L75.9422 370.449L64.3493 403.634Z" fill="white" stroke="#36B37E" stroke-width="1.55764" stroke-miterlimit="10" stroke-linejoin="round"/>
<path d="M-59.2616 267.882L17.8667 267.162" stroke="#36B37E" stroke-width="1.55764" stroke-miterlimit="10" stroke-linejoin="round"/>
<path d="M32.238 254.966L11.0463 256.693L4.83141 267.222L27.9054 284.858L32.238 254.966Z" fill="#C5E9DA" stroke="#36B37E" stroke-width="1.55764" stroke-miterlimit="10" stroke-linejoin="round"/>
<mask id="mask1_1_468" style="mask-type:alpha" maskUnits="userSpaceOnUse" x="-70" y="201" width="147" height="80">
<path d="M-13.2932 244.643L1.13309 248.954L10.7211 239.016L24.4256 243.328L14.8384 252.905L28.3628 257.037L18.9557 266.795L5.25038 262.844L-8.81585 258.893L-18.9457 269.013L-33.7337 265.063L-44.2253 275.544L-59.7352 271.596L-48.7018 260.933L-38.2102 250.452L-23.423 254.763L-13.2932 244.643Z" fill="#C5E9DA"/>
<path d="M-3.16405 234.884L6.604 225.126L20.3084 229.438L10.7213 239.016L-3.16405 234.884Z" fill="#36B37E"/>
<path d="M37.589 247.46L24.4255 243.327L33.6517 233.75L20.3082 229.438L29.7145 220.041L42.6971 224.354L55.3188 228.668L46.6344 238.063L59.2569 242.016L71.6986 246.149L63.1951 255.364L50.5725 251.412L41.3463 260.989L28.3628 257.037L37.589 247.46Z" fill="#5E78A5"/>
<path d="M54.3299 264.94L45.4646 274.517L32.3002 270.746L41.3464 260.988L54.3299 264.94Z" fill="#36B37E"/>
<path d="M76.4443 223.766L67.9408 232.981L55.3191 228.668L64.1835 219.452L76.4443 223.766Z" fill="#36B37E"/>
<path d="M6.60412 225.126L-7.28035 220.634L2.3068 211.056L12.074 201.659L25.5975 206.152L38.7593 211.006L29.7148 220.041L16.1913 215.548L6.60412 225.126Z" fill="#36B37E"/>
<path d="M32.3 270.746L23.0728 280.684L9.18665 276.913L18.9556 266.794L32.3 270.746Z" fill="#36B37E"/>
</mask>
<g mask="url(#mask1_1_468)">
<path d="M-31.2904 224.457L78.2671 216.184L28.5314 256.951L10.1008 258.395L3.69782 268.327L-59.5463 268.166L-31.2904 224.457Z" fill="#36B37E" stroke="#36B37E" stroke-width="1.55764" stroke-miterlimit="10" stroke-linejoin="round"/>
</g>
</g>
<path d="M304.531 401.423L308.542 393.079C308.644 392.867 308.817 392.698 309.03 392.601L369.722 365.067C370.017 364.933 370.358 364.951 370.638 365.114L400.959 382.795C401.73 383.245 401.571 384.402 400.708 384.627L323.934 404.634C323.819 404.664 323.701 404.674 323.583 404.662L305.333 402.852C304.642 402.783 304.23 402.049 304.531 401.423Z" fill="#172B4D"/>
<g clip-path="url(#clip2_1_468)">
<path d="M308.165 336.843L291.146 382.929L310.986 396.127L368.573 368.775L386.237 345.003L343.731 331.713L308.165 336.843Z" fill="white" stroke="#36B37E" stroke-width="1.63467" stroke-miterlimit="10" stroke-linejoin="round"/>
<path d="M328.19 355.382L330.083 359.369L368.573 368.776L371.205 365.173L386.237 345.004L343.731 331.713L328.19 355.382Z" fill="#C5E9DA" stroke="#36B37E" stroke-width="1.63467" stroke-miterlimit="10" stroke-linejoin="round"/>
<path d="M343.731 331.714L330.342 353.817L291.146 382.93" fill="white"/>
<path d="M343.731 331.714L330.342 353.817L291.146 382.93" stroke="#36B37E" stroke-width="1.63467" stroke-miterlimit="10" stroke-linejoin="round"/>
<path d="M323.217 359.011L325.041 348.372L335.185 345.726L330.083 359.369L323.217 359.011Z" fill="#172B4D" stroke="#36B37E" stroke-width="1.63467" stroke-miterlimit="10" stroke-linejoin="round"/>
<path d="M368.573 368.776L330.083 359.369" stroke="#36B37E" stroke-width="1.63467" stroke-miterlimit="10" stroke-linejoin="round"/>
<path d="M355.258 365.509L361.947 360.16L361.224 367.019L356.104 370.717L355.258 365.509Z" fill="white" stroke="#36B37E" stroke-width="1.63467" stroke-miterlimit="10" stroke-linejoin="round"/>
<path d="M361.947 360.16L360.298 336.875" stroke="#36B37E" stroke-width="1.63467" stroke-miterlimit="10" stroke-linejoin="round"/>
<mask id="mask2_1_468" style="mask-type:alpha" maskUnits="userSpaceOnUse" x="290" y="358" width="80" height="39">
<path d="M291.146 382.929L323.217 359.01L334.524 360.336L368.573 368.776L364.439 370.739L310.986 396.127L291.146 382.929Z" fill="white" stroke="#36B37E" stroke-width="1.63467" stroke-miterlimit="10" stroke-linejoin="round"/>
</mask>
<g mask="url(#mask2_1_468)">
<path d="M324.141 370.535L328.534 361.209L338.322 360.859L342.434 351.893L333.103 352.252L337.4 343.199L327.797 343.462L323.5 352.515L318.835 361.744L308.775 361.998L304.012 371.499L293.583 371.928L288.355 381.876L298.968 381.36L309.309 380.746L314.169 370.973L324.141 370.535Z" fill="#36B37E"/>
<path d="M333.928 370.184L343.628 369.649L347.652 360.499L338.322 360.858L333.928 370.184Z" fill="#36B37E"/>
<path d="M319.466 380.22L329.535 379.51L333.928 370.184L324.141 370.534L319.466 380.22Z" fill="#C5E9DA"/>
<path d="M324.86 389.196L334.744 388.573L339.235 378.975L329.535 379.51L324.86 389.196Z" fill="#36B37E"/>
<path d="M314.791 389.907L319.466 380.221L309.309 380.747L304.45 390.52L299.397 400.838L309.835 399.952L320.176 399.339L324.86 389.196L314.791 389.907Z" fill="#36B37E"/>
<path d="M346.633 343.111L342.434 351.893L351.764 351.533L347.652 360.499L356.983 360.14L360.91 351.261L364.741 342.655L355.779 342.84L359.697 334.418L363.431 326.084L354.654 326.181L350.736 334.602L341.502 334.69L337.4 343.199L346.633 343.111Z" fill="#36B37E"/>
<path d="M343.628 369.649L339.235 378.975L348.75 378.528L358.178 377.896L362.202 368.746L366.129 359.867L356.983 360.139L352.959 369.29L343.628 369.649Z" fill="#36B37E"/>
<path d="M340.226 397.733L344.629 387.951L334.744 388.573L330.342 398.356L340.226 397.733Z" fill="#36B37E"/>
<path d="M315.492 409.481L325.658 408.498L330.342 398.356L320.176 399.338L315.492 409.481Z" fill="#36B37E"/>
</g>
</g>
<defs>
<clipPath id="clip0_1_468">
<rect width="316.165" height="450.963" fill="white" transform="matrix(-0.987301 0.15886 0.15886 0.987301 1529.15 0)"/>
</clipPath>
<clipPath id="clip1_1_468">
<rect width="236" height="261.092" fill="white" transform="matrix(-0.707463 0.706751 0.706751 0.707463 8.96094 145)"/>
</clipPath>
<clipPath id="clip2_1_468">
<rect width="105.273" height="67.1849" fill="white" transform="translate(274 352.165) rotate(-25.4057)"/>
</clipPath>
</defs>
</svg>
