<svg width="18" height="21" viewBox="0 0 18 21" fill="none" xmlns="http://www.w3.org/2000/svg">
<path d="M17.9852 8.21083C17.9852 7.09277 17.6192 6.04246 16.9205 5.12768C17.1867 4.24678 17.2532 3.12871 17.1867 1.84124C17.1534 1.29915 16.7209 0.892578 16.1885 0.892578C15.8891 0.892578 13.3604 0.926459 11.8965 2.24781C10.6321 2.01064 9.30128 2.01064 8.00368 2.24781C6.573 0.926459 4.04435 0.892578 3.71163 0.892578C3.17928 0.892578 2.74675 1.29915 2.71348 1.84124C2.61366 3.12871 2.71348 4.24678 2.97965 5.12768C2.28095 6.07634 1.91496 7.12665 1.91496 8.21083C1.91496 10.5825 3.71163 12.717 6.43991 13.7334C6.3401 13.9367 6.27355 14.1739 6.20701 14.411C3.31237 14.1061 1.94823 11.4295 1.88169 11.3279C1.64878 10.8197 1.04989 10.6164 0.550818 10.8874C0.0517425 11.1246 -0.147888 11.7344 0.118286 12.2426C0.184829 12.4121 2.01477 16.0373 6.04065 16.4439V19.4931C6.04065 20.0691 6.47319 20.5096 7.0388 20.5096H12.8614C13.427 20.5096 13.8595 20.0691 13.8595 19.4931V15.4613C13.8595 14.8515 13.7264 14.2755 13.4935 13.7673C16.1885 12.717 17.9852 10.6164 17.9852 8.21083Z" fill="#505F79"/>
</svg>
