<svg width="381" height="655" viewBox="0 0 381 655" fill="none" xmlns="http://www.w3.org/2000/svg">
<path d="M-72.6243 442.462L45.0092 372.174" stroke="#A5ADBA" stroke-width="0.426199" stroke-miterlimit="10" stroke-linecap="round" stroke-dasharray="0.43 0.43"/>
<path d="M-107.68 347.977L26.0903 323.549" stroke="#A5ADBA" stroke-width="0.426199" stroke-miterlimit="10" stroke-linecap="round" stroke-dasharray="0.43 0.43"/>
<path d="M-109.35 246.691L24.4207 271.12" stroke="#A5ADBA" stroke-width="0.426199" stroke-miterlimit="10" stroke-linecap="round" stroke-dasharray="0.43 0.43"/>
<path d="M-77.5215 150.938L40.1119 221.227" stroke="#A5ADBA" stroke-width="0.426199" stroke-miterlimit="10" stroke-linecap="round" stroke-dasharray="0.43 0.43"/>
<path d="M-15.978 72.2383L71.3845 179.976" stroke="#A5ADBA" stroke-width="0.426199" stroke-miterlimit="10" stroke-linecap="round" stroke-dasharray="0.43 0.43"/>
<path d="M67.9351 20.1553L114.343 152.206" stroke="#A5ADBA" stroke-width="0.426199" stroke-miterlimit="10" stroke-linecap="round" stroke-dasharray="0.43 0.43"/>
<path d="M168.875 0.796875V141.374" stroke="#A5ADBA" stroke-width="0.426199" stroke-miterlimit="10" stroke-linecap="round" stroke-dasharray="0.43 0.43"/>
<path d="M260.467 16.6982L214.059 148.749" stroke="#A5ADBA" stroke-width="0.426199" stroke-miterlimit="10" stroke-linecap="round" stroke-dasharray="0.43 0.43"/>
<path d="M346.048 65.7842L258.797 173.406" stroke="#A5ADBA" stroke-width="0.426199" stroke-miterlimit="10" stroke-linecap="round" stroke-dasharray="0.43 0.43"/>
<path d="M410.151 142.181L292.629 212.469" stroke="#A5ADBA" stroke-width="0.426199" stroke-miterlimit="10" stroke-linecap="round" stroke-dasharray="0.43 0.43"/>
<path d="M445.208 236.782L311.549 261.095" stroke="#A5ADBA" stroke-width="0.426199" stroke-miterlimit="10" stroke-linecap="round" stroke-dasharray="0.43 0.43"/>
<path d="M446.989 337.952L313.218 313.523" stroke="#A5ADBA" stroke-width="0.426199" stroke-miterlimit="10" stroke-linecap="round" stroke-dasharray="0.43 0.43"/>
<path d="M415.049 433.706L297.527 363.417" stroke="#A5ADBA" stroke-width="0.426199" stroke-miterlimit="10" stroke-linecap="round" stroke-dasharray="0.43 0.43"/>
<path d="M353.506 512.406L266.254 404.669" stroke="#A5ADBA" stroke-width="0.426199" stroke-miterlimit="10" stroke-linecap="round" stroke-dasharray="0.43 0.43"/>
<path d="M269.703 564.604L223.296 432.438" stroke="#A5ADBA" stroke-width="0.426199" stroke-miterlimit="10" stroke-linecap="round" stroke-dasharray="0.43 0.43"/>
<path d="M168.875 533.839L168.875 443.27" stroke="#A5ADBA" stroke-width="0.426199" stroke-miterlimit="10" stroke-linecap="round" stroke-dasharray="0.43 0.43"/>
<path d="M77.0611 568.059L123.58 435.894" stroke="#A5ADBA" stroke-width="0.426199" stroke-miterlimit="10" stroke-linecap="round" stroke-dasharray="0.43 0.43"/>
<path d="M-8.40999 518.859L78.8413 411.236" stroke="#A5ADBA" stroke-width="0.426199" stroke-miterlimit="10" stroke-linecap="round" stroke-dasharray="0.43 0.43"/>
<path d="M-72.6243 442.462L45.0092 372.174" stroke="#A5ADBA" stroke-width="0.426199" stroke-miterlimit="10" stroke-linecap="round" stroke-dasharray="0.43 0.43"/>
<path d="M-107.68 347.977L26.0903 323.549" stroke="#A5ADBA" stroke-width="0.426199" stroke-miterlimit="10" stroke-linecap="round" stroke-dasharray="0.43 0.43"/>
<path d="M-109.35 246.691L24.4207 271.12" stroke="#A5ADBA" stroke-width="0.426199" stroke-miterlimit="10" stroke-linecap="round" stroke-dasharray="0.43 0.43"/>
<path d="M-77.5215 150.938L40.1119 221.227" stroke="#A5ADBA" stroke-width="0.426199" stroke-miterlimit="10" stroke-linecap="round" stroke-dasharray="0.43 0.43"/>
<path d="M-15.978 72.2383L71.3845 179.976" stroke="#A5ADBA" stroke-width="0.426199" stroke-miterlimit="10" stroke-linecap="round" stroke-dasharray="0.43 0.43"/>
<path d="M67.9351 20.1553L114.343 152.206" stroke="#A5ADBA" stroke-width="0.426199" stroke-miterlimit="10" stroke-linecap="round" stroke-dasharray="0.43 0.43"/>
<g clip-path="url(#clip0_48_1090)">
<path d="M351.195 279.087L401.432 227.224L474.628 245.403L424.098 297.25L351.195 279.087Z" fill="#C5E9DA" stroke="#36B37E" stroke-width="0.976579" stroke-miterlimit="10" stroke-linejoin="round"/>
<path d="M393.325 324.294L351.196 279.089L424.099 297.251L393.325 324.294Z" fill="white" stroke="#36B37E" stroke-width="0.976579" stroke-miterlimit="10" stroke-linejoin="round"/>
<path d="M443.236 367.376L369.894 347.604L393.325 324.294L443.236 367.376Z" fill="#C5E9DA" stroke="#36B37E" stroke-width="0.976579" stroke-miterlimit="10" stroke-linejoin="round"/>
<path d="M351.196 279.089L369.893 347.603L393.325 324.294L351.196 279.089Z" fill="white" stroke="#36B37E" stroke-width="0.976579" stroke-miterlimit="10" stroke-linejoin="round"/>
<path d="M394.296 289.816L443.899 237.741L431.327 234.637L381.927 286.752L394.296 289.816Z" fill="#36B37E"/>
<path d="M381.926 286.752L391.69 322.53L370.211 299.464L365.622 282.648L381.926 286.752Z" fill="#36B37E"/>
<path d="M365.622 282.648L373.224 275.288L358.456 271.534L351.196 279.089L365.622 282.648Z" fill="#172B4D"/>
<path d="M388.878 279.473L395.959 271.966L379.858 267.903L372.573 275.369L388.878 279.473Z" fill="#172B4D"/>
<path d="M379.858 267.903L387.46 260.543L372.693 256.789L365.408 264.255L379.858 267.903Z" fill="#172B4D"/>
<path d="M391.366 326.271L393.325 324.294L377.383 349.692L369.894 347.603L391.366 326.271Z" fill="#172B4D"/>
</g>
<g opacity="0.88">
<g clip-path="url(#clip1_48_1090)">
<path d="M42.2705 510.107L24.8648 537.712L-9.19986 536.468L8.33684 508.842L42.2705 510.107Z" fill="#C5E9DA" stroke="#36B37E" stroke-width="0.474153" stroke-miterlimit="10" stroke-linejoin="round"/>
<path d="M8.33588 508.842L-9.20083 536.467L-22.7232 506.387L-6.64018 479.6L8.33588 508.842Z" fill="white" stroke="#36B37E" stroke-width="0.474153" stroke-miterlimit="10" stroke-linejoin="round"/>
<path d="M8.33576 508.842L19.437 494.023L-6.6403 479.601L8.33576 508.842Z" fill="white" stroke="#36B37E" stroke-width="0.474153" stroke-miterlimit="10" stroke-linejoin="round"/>
<path d="M19.4375 494.023L42.2699 510.106L8.33624 508.842L19.4375 494.023Z" fill="white" stroke="#36B37E" stroke-width="0.474153" stroke-miterlimit="10" stroke-linejoin="round"/>
<path d="M-6.64023 479.6L27.6373 481.536L19.4371 494.022L-6.64023 479.6Z" fill="#C5E9DA" stroke="#36B37E" stroke-width="0.474153" stroke-miterlimit="10" stroke-linejoin="round"/>
<path d="M42.2699 510.106L27.6377 481.537L19.4375 494.023L42.2699 510.106Z" fill="white" stroke="#36B37E" stroke-width="0.474153" stroke-miterlimit="10" stroke-linejoin="round"/>
<path d="M13.9049 501.422L10.5371 505.877L13.9049 501.422Z" fill="#644DF2"/>
<path d="M12.123 508.974L10.5376 505.878L8.33604 508.842L12.123 508.974Z" fill="#36B37E"/>
<path d="M12.1227 508.974L-4.98279 536.614L0.866433 536.819L17.8783 509.18L12.1227 508.974Z" fill="#36B37E"/>
<path d="M22.2096 509.364L5.10404 537.004L10.9533 537.21L27.9651 509.571L22.2096 509.364Z" fill="#36B37E"/>
<path d="M22.2094 509.364L16.3259 497.877L13.9052 501.423L17.8784 509.181L22.2094 509.364Z" fill="#36B37E"/>
<path d="M27.9648 509.57L20.324 494.651L31.9667 502.859L35.5579 509.871L27.9648 509.57Z" fill="#36B37E"/>
<path d="M35.5582 509.871L32.8791 513.833L39.7599 514.122L42.2698 510.106L35.5582 509.871Z" fill="#172B4D"/>
<path d="M25.566 513.436L23.1307 517.414L30.6301 517.716L33.1591 513.737L25.566 513.436Z" fill="#172B4D"/>
<path d="M30.6305 517.715L27.9513 521.677L34.8321 521.966L37.3612 517.987L30.6305 517.715Z" fill="#172B4D"/>
<path d="M20.1203 492.966L19.4371 494.022L24.1305 481.308L27.6373 481.536L20.1203 492.966Z" fill="#172B4D"/>
<path d="M-12.7485 516.486L-15.0089 511.429L-11.9294 506.226L-9.57534 511.282L0.848266 494.221C0.848266 494.221 -5.64645 481.54 -6.63976 479.6C-7.63307 477.661 -22.7419 506.35 -22.7419 506.35L-15.8852 521.576L-12.7485 516.486Z" fill="#172B4D"/>
</g>
</g>
<g opacity="0.32">
<g clip-path="url(#clip2_48_1090)">
<path d="M35.2614 140.484L43.0414 150.395L38.1693 162.62L30.399 152.659L35.2614 140.484Z" fill="#C5E9DA" stroke="#36B37E" stroke-width="0.474153" stroke-miterlimit="10" stroke-linejoin="round"/>
<path d="M30.3987 152.658L38.169 162.619L25.4766 163.633L17.8227 154.31L30.3987 152.658Z" fill="white" stroke="#36B37E" stroke-width="0.474153" stroke-miterlimit="10" stroke-linejoin="round"/>
<path d="M30.3987 152.658L26.4502 146.699L17.8227 154.31L30.3987 152.658Z" fill="white" stroke="#36B37E" stroke-width="0.474153" stroke-miterlimit="10" stroke-linejoin="round"/>
<path d="M26.4497 146.699L35.2605 140.483L30.3981 152.659L26.4497 146.699Z" fill="white" stroke="#36B37E" stroke-width="0.474153" stroke-miterlimit="10" stroke-linejoin="round"/>
<path d="M17.8221 154.311L22.9733 142.097L26.4497 146.699L17.8221 154.311Z" fill="#C5E9DA" stroke="#36B37E" stroke-width="0.474153" stroke-miterlimit="10" stroke-linejoin="round"/>
<path d="M35.2605 140.483L22.9733 142.097L26.4497 146.699L35.2605 140.483Z" fill="white" stroke="#36B37E" stroke-width="0.474153" stroke-miterlimit="10" stroke-linejoin="round"/>
<path d="M28.4227 149.671L29.6059 151.474L28.4227 149.671Z" fill="#644DF2"/>
<path d="M30.9375 151.299L29.6061 151.474L30.3982 152.659L30.9375 151.299Z" fill="#36B37E"/>
<path d="M30.9375 151.3L38.769 161.106L39.6027 159.006L31.7594 149.234L30.9375 151.3Z" fill="#36B37E"/>
<path d="M32.388 147.682L40.2195 157.488L41.0532 155.388L33.2099 145.616L32.388 147.682Z" fill="#36B37E"/>
<path d="M32.3884 147.682L27.4478 148.331L28.4235 149.671L31.76 149.233L32.3884 147.682Z" fill="#36B37E"/>
<path d="M33.2097 145.616L26.7934 146.458L31.2887 143.29L34.3044 142.894L33.2097 145.616Z" fill="#36B37E"/>
<path d="M34.3046 142.894L35.3976 144.382L36.3956 141.917L35.2608 140.484L34.3046 142.894Z" fill="#172B4D"/>
<path d="M34.3041 146.99L35.4347 148.391L36.5175 145.703L35.3988 144.268L34.3041 146.99Z" fill="#172B4D"/>
<path d="M36.5174 145.703L37.6104 147.191L38.6084 144.727L37.4896 143.291L36.5174 145.703Z" fill="#172B4D"/>
<path d="M26.1543 146.314L26.4497 146.699L22.4352 143.343L22.9733 142.097L26.1543 146.314Z" fill="#172B4D"/>
<path d="M34.2132 162.943L32.6986 161.102L29.8628 161.377L31.355 163.172L34.2132 162.943Z" fill="#36B37E"/>
<path d="M30.4428 161.317L28.3106 161.483L26.8184 159.688L28.9624 159.488L24.1106 153.484C24.1106 153.484 18.6567 154.201 17.8226 154.31C16.9885 154.42 25.4605 163.636 25.4605 163.636L31.8868 163.118L30.4428 161.317Z" fill="#172B4D"/>
</g>
</g>
<g clip-path="url(#clip3_48_1090)">
<path d="M387.404 95.1839L341.006 89.0286L321.633 70.2342L324.204 22.7653L330.506 13.6843L344.563 15.65L389.895 64.4968L387.404 95.1839Z" fill="#C5E9DA" stroke="#36B37E" stroke-width="0.646395" stroke-miterlimit="10" stroke-linejoin="round"/>
<path d="M356.709 91.1134L355.637 77.466C355.637 77.466 350.95 90.3425 349 90.091C346.997 89.8026 356.709 91.1134 356.709 91.1134Z" fill="#36B37E"/>
<path d="M367.799 92.5928L378.432 52.2135" stroke="#36B37E" stroke-width="0.646395" stroke-miterlimit="10"/>
<path d="M375.752 62.3135L374.954 48.3842" stroke="#36B37E" stroke-width="0.646395" stroke-miterlimit="10"/>
<path d="M323.984 32.748L342.948 45.0649L347.642 50.5614L342.719 54.2449L323.649 38.6904L323.984 32.748Z" fill="white" stroke="#36B37E" stroke-width="0.646395"/>
<path d="M355.449 84.0312L355.591 62.9651" stroke="#36B37E" stroke-width="0.646395" stroke-miterlimit="10"/>
<path d="M323.451 36.4899L323.635 36.2243L329.282 39.1986L338.568 47.9249L343.163 44.819L344.585 15.6719L330.528 13.7062L324.226 22.7872L323.451 36.4899Z" fill="#172B4D"/>
<path d="M328.95 39.6758L323.463 36.8121L321.655 70.2554L341.029 89.0498L342.711 54.6538L340.274 50.6815L328.95 39.6758Z" fill="#172B4D"/>
</g>
<g opacity="0.48" clip-path="url(#clip4_48_1090)">
<path d="M144.187 484.974L158.006 493.403C158.006 493.403 160.052 495.015 158.128 498.487C156.204 501.959 153.873 501.117 153.873 501.117L139.521 492.857C139.521 492.857 137.821 491.29 139.526 488.079C141.499 484.343 144.187 484.974 144.187 484.974Z" fill="#C5E9DA" stroke="#36B37E" stroke-width="0.121852" stroke-miterlimit="10"/>
<path d="M144.187 484.975C144.187 484.975 146.145 486.176 144.056 490.129C142.092 493.831 139.521 492.857 139.521 492.857C139.521 492.857 137.869 491.153 139.526 488.079C141.183 485.006 143.171 484.951 144.187 484.975Z" fill="#36B37E"/>
<path d="M156.909 492.73C156.909 492.73 155.631 494.675 152.267 496.019C148.699 497.448 146.667 496.97 146.667 496.97L149.549 498.634C149.549 498.634 151.062 498.954 154.792 497.213C157.837 495.795 158.706 494.395 158.706 494.395L157.989 493.4L156.909 492.73Z" fill="#172B4D"/>
<path d="M152.01 489.785C152.01 489.785 150.773 491.527 147.113 492.714C143.453 493.901 140.941 493.689 140.941 493.689L143.824 495.353C143.824 495.353 146.159 495.65 149.457 494.287C152.514 493.015 154.259 491.16 154.259 491.16L152.491 490.076L152.01 489.785Z" fill="#36B37E"/>
<path d="M144.056 490.129C144.056 490.129 147.891 490.418 150.145 488.602L147.672 487.1C147.672 487.1 146.545 487.529 145.002 487.281C145.002 487.281 144.595 489.065 144.056 490.129Z" fill="#172B4D"/>
<path d="M142.591 488.613L142.104 489.244L142.267 492.134C142.267 492.134 143.386 491.362 144.055 490.129L143.462 488.703L142.591 488.613Z" fill="white" stroke="#36B37E" stroke-width="0.121852" stroke-miterlimit="10"/>
<path d="M144.785 485.857C144.785 485.857 144.62 485.155 144.181 484.966L141.86 488.323C141.86 488.323 142.667 488.6 142.868 488.712C143.075 488.834 143.455 489.042 143.455 489.042L144.878 488.117C144.884 488.127 145.372 486.995 144.785 485.857Z" fill="white" stroke="#36B37E" stroke-width="0.121852" stroke-miterlimit="10"/>
<path d="M158.514 497.676C158.514 497.676 156.442 499.141 153.914 499.605C151.565 500.04 151.348 499.673 151.348 499.673L153.873 501.118C153.873 501.118 154.951 501.482 156.302 500.652C157.654 499.822 158.514 497.676 158.514 497.676Z" fill="#36B37E"/>
<path d="M142.874 488.721C142.874 488.721 142.693 487.637 142.476 487.27C142.259 486.903 142.211 486.79 142.211 486.79L141.697 487.7L141.865 488.332L142.874 488.721Z" fill="white" stroke="#36B37E" stroke-width="0.121852" stroke-miterlimit="10"/>
<path d="M142.094 489.25L141.378 489.088L138.812 491.147C138.812 491.147 138.747 491.406 139.115 492.274L139.343 492.636L142.381 489.745C142.371 489.751 142.457 489.328 142.094 489.25Z" fill="white" stroke="#36B37E" stroke-width="0.121852" stroke-miterlimit="10"/>
<path d="M142.094 489.25C142.094 489.25 141.143 490.931 141.18 490.897C141.217 490.863 142.641 489.964 142.641 489.964C142.641 489.964 142.59 489.241 142.094 489.25Z" fill="white" stroke="#36B37E" stroke-width="0.121852" stroke-miterlimit="10"/>
</g>
<g clip-path="url(#clip5_48_1090)">
<path d="M333.897 636.679L353.277 603.526C353.277 603.526 357.009 598.601 365.33 603.01C373.65 607.419 371.757 612.985 371.757 612.985L352.802 647.395C352.802 647.395 349.163 651.499 341.469 647.596C332.52 643.082 333.897 636.679 333.897 636.679Z" fill="#C5E9DA" stroke="#36B37E" stroke-width="0.289082" stroke-miterlimit="10"/>
<path d="M333.898 636.68C333.898 636.68 336.659 631.981 346.129 636.761C354.998 641.254 352.802 647.395 352.802 647.395C352.802 647.395 348.833 651.39 341.469 647.596C334.105 643.803 333.887 639.089 333.898 636.68Z" fill="#36B37E"/>
<path d="M351.726 606.158C351.726 606.158 356.397 609.102 359.734 617.022C363.282 625.422 362.239 630.264 362.239 630.264L366.059 623.352C366.059 623.352 366.749 619.748 362.454 610.979C358.955 603.82 355.597 601.82 355.597 601.82L353.267 603.565L351.726 606.158Z" fill="#172B4D"/>
<path d="M344.958 617.91C344.958 617.91 349.145 620.767 352.123 629.395C355.102 638.023 354.709 643.992 354.709 643.992L358.529 637.079C358.529 637.079 359.128 631.526 355.748 623.764C352.597 616.571 348.118 612.514 348.118 612.514L345.627 616.756L344.958 617.91Z" fill="#36B37E"/>
<path d="M346.129 636.762C346.129 636.762 346.644 627.652 342.235 622.386L338.783 628.318C338.783 628.318 339.849 630.974 339.331 634.644C339.331 634.644 343.581 635.529 346.129 636.762Z" fill="#172B4D"/>
<path d="M342.598 640.302L344.116 641.429L350.963 640.914C350.963 640.914 349.083 638.294 346.128 636.762L342.772 638.233L342.598 640.302Z" fill="white" stroke="#36B37E" stroke-width="0.289082" stroke-miterlimit="10"/>
<path d="M335.96 635.221C335.96 635.221 334.302 635.644 333.873 636.693L341.939 642.05C341.939 642.05 342.562 640.122 342.818 639.64C343.099 639.144 343.575 638.235 343.575 638.235L341.316 634.9C341.341 634.885 338.632 633.779 335.96 635.221Z" fill="white" stroke="#36B37E" stroke-width="0.289082" stroke-miterlimit="10"/>
<path d="M363.387 602.13C363.387 602.13 366.954 606.98 368.168 612.955C369.304 618.508 368.442 619.039 368.442 619.039L371.757 612.986C371.757 612.986 372.574 610.411 370.545 607.243C368.516 604.076 363.387 602.13 363.387 602.13Z" fill="#36B37E"/>
<path d="M342.843 639.627C342.843 639.627 340.281 640.104 339.419 640.635C338.557 641.166 338.293 641.286 338.293 641.286L340.474 642.463L341.964 642.037L342.843 639.627Z" fill="white" stroke="#36B37E" stroke-width="0.289082" stroke-miterlimit="10"/>
<path d="M344.131 641.453L343.78 643.158L348.776 649.152C348.776 649.152 349.393 649.297 351.437 648.384L352.284 647.828L345.293 640.749C345.307 640.774 344.299 640.588 344.131 641.453Z" fill="white" stroke="#36B37E" stroke-width="0.289082" stroke-miterlimit="10"/>
<path d="M344.131 641.453C344.131 641.453 348.16 643.633 348.077 643.547C347.994 643.461 345.799 640.122 345.799 640.122C345.799 640.122 344.086 640.277 344.131 641.453Z" fill="white" stroke="#36B37E" stroke-width="0.289082" stroke-miterlimit="10"/>
</g>
<defs>
<clipPath id="clip0_48_1090">
<rect width="128.874" height="147.139" fill="white" transform="translate(340.936 243.255) rotate(-15.2643)"/>
</clipPath>
<clipPath id="clip1_48_1090">
<rect width="58.2472" height="66.5024" fill="white" transform="translate(50.1346 525.004) rotate(152.88)"/>
</clipPath>
<clipPath id="clip2_48_1090">
<rect width="22.4882" height="25.6754" fill="white" transform="translate(41.6981 139.557) rotate(82.5164)"/>
</clipPath>
<clipPath id="clip3_48_1090">
<rect width="93.8566" height="62.9589" fill="white" transform="translate(375.31 113.234) rotate(-145.241)"/>
</clipPath>
<clipPath id="clip4_48_1090">
<rect width="20.4102" height="16.2672" fill="white" transform="translate(151.014 480.325) rotate(61.0741)"/>
</clipPath>
<clipPath id="clip5_48_1090">
<rect width="48.4212" height="38.5925" fill="white" transform="translate(322.564 620.69) rotate(-30)"/>
</clipPath>
</defs>
</svg>
