<svg width="381" height="402" viewBox="0 0 381 402" fill="none" xmlns="http://www.w3.org/2000/svg">
<g clip-path="url(#clip0_1_468)">
<path d="M-35.2046 394.247L65.5333 392.945L26.4966 382.205L30.8965 372.898L55.8637 369.472L49.4684 367.989L32.2779 367.222L-35.2046 394.247Z" fill="#172B4D"/>
<path d="M20.5105 346.716L17.4407 346.767L-8.08918 337.255L20.7663 353.619L25.4732 349.733L20.5105 346.716Z" fill="#36B37E"/>
<path d="M20.5107 346.715L70.1892 337.612L45.3755 361.699L20.5107 346.715Z" fill="#172B4D"/>
<path d="M-8.08918 337.255L41.4869 365.432L30.3336 367.478L3.01301 369.472L-8.08918 337.255Z" fill="white" stroke="#36B37E" stroke-width="0.633632" stroke-miterlimit="10" stroke-linejoin="round"/>
<path d="M41.4871 365.432L70.189 337.612L49.4684 367.989L41.4871 365.432Z" fill="white" stroke="#36B37E" stroke-width="0.633632" stroke-miterlimit="10" stroke-linejoin="round"/>
<path d="M20.7665 353.619L33.6083 343.033L34.9385 344.107L30.8967 359.398L20.7665 353.619Z" fill="white" stroke="#36B37E" stroke-width="0.633632" stroke-miterlimit="10" stroke-linejoin="round"/>
<path d="M34.9383 344.107L46.5521 360.574L41.4871 365.432L30.8965 359.398L34.9383 344.107Z" fill="white" stroke="#36B37E" stroke-width="0.633632" stroke-miterlimit="10" stroke-linejoin="round"/>
<path d="M49.4685 367.989L30.3339 367.477L41.4872 365.432L49.4685 367.989Z" fill="white" stroke="#36B37E" stroke-width="0.633632" stroke-miterlimit="10" stroke-linejoin="round"/>
<path d="M-16.6331 360.113L47.6265 337.612L19.6408 374.688L-16.6331 360.113Z" fill="#C5E9DA" stroke="#36B37E" stroke-width="0.633632" stroke-miterlimit="10"/>
<path d="M-56.7443 353.567L15.3431 380.415L0.864263 385.529L-35.1539 393.865L-56.7443 353.567Z" fill="white" stroke="#36B37E" stroke-width="0.633632" stroke-miterlimit="10" stroke-linejoin="round"/>
<path d="M15.3431 380.416L47.6264 337.612L26.4964 382.205L15.3431 380.416Z" fill="white" stroke="#36B37E" stroke-width="0.633632" stroke-miterlimit="10" stroke-linejoin="round"/>
<path d="M-14.7914 369.217L0.0967395 352.494L2.09206 353.568L-0.0567445 374.688L-14.7914 369.217Z" fill="#36B37E"/>
<path d="M2.09206 353.567L20.9709 372.949L15.343 380.415L-0.0567474 374.688L2.09206 353.567Z" fill="white" stroke="#36B37E" stroke-width="0.633632" stroke-miterlimit="10" stroke-linejoin="round"/>
<path d="M26.4964 382.205L0.864197 385.529L15.3431 380.415L26.4964 382.205Z" fill="white" stroke="#36B37E" stroke-width="0.633632" stroke-miterlimit="10" stroke-linejoin="round"/>
<mask id="mask0_1_468" style="mask-type:alpha" maskUnits="userSpaceOnUse" x="-58" y="353" width="74" height="41">
<path d="M-56.8336 353.759L15.2077 380.309L0.941377 385.223L-35.0768 393.558L-56.8336 353.759Z" fill="white" stroke="#36B37E" stroke-width="0.633632" stroke-miterlimit="10" stroke-linejoin="round"/>
</mask>
<g mask="url(#mask0_1_468)">
<path d="M-13.4611 381.489L-21.2889 381.745L-24.9214 375.455L-32.4423 375.762L-28.9121 382.001L-36.3306 382.205L-32.9027 388.496L-25.3307 388.342L-17.6052 388.138L-13.8192 394.734L-5.73563 394.632L-1.74498 401.383H6.64561L2.55264 394.53L-1.48917 387.831L-9.67511 387.984L-13.4611 381.489Z" fill="#C5E9DA"/>
<path d="M2.75744 380.927L-5.47966 381.234L-1.48902 387.831L6.85041 387.626L15.4457 387.421L11.1992 380.671L7.05506 374.074L-1.23321 374.432L2.75744 380.927Z" fill="#36B37E"/>
<path d="M-0.977466 361.238L-9.00992 361.75L-5.17276 367.989L3.01318 367.58L-0.977466 361.238Z" fill="#36B37E"/>
<path d="M15.5991 373.665L11.3526 367.119L3.01319 367.579L7.05499 374.074L15.5991 373.665Z" fill="#36B37E"/>
</g>
</g>
<mask id="mask1_1_468" style="mask-type:alpha" maskUnits="userSpaceOnUse" x="307" y="0" width="68" height="127">
<rect x="307" width="68" height="127" fill="#C4C4C4"/>
</mask>
<g mask="url(#mask1_1_468)">
<path d="M378.803 106.077L422.808 121.042H359.67L351.575 120.159L347.651 117.706L361.044 106.077H378.803Z" fill="#172B4D"/>
<path d="M373.014 78.601V76.2459C373.014 76.2459 367.863 66.0403 367.127 65.9422C366.391 65.8441 306.54 40.9189 306.54 40.9189L329.352 85.3229L338.379 94.9397L373.014 78.601Z" fill="white" stroke="#36B37E" stroke-width="0.598795" stroke-miterlimit="10"/>
<mask id="mask2_1_468" style="mask-type:alpha" maskUnits="userSpaceOnUse" x="306" y="40" width="68" height="56">
<path d="M373.197 78.8676V76.5125C373.197 76.5125 368.046 66.3069 367.31 66.2088C366.574 66.1107 306.723 41.1855 306.723 41.1855L329.535 85.5895L338.562 95.2063L373.197 78.8676Z" fill="white" stroke="#36B37E" stroke-width="0.598795" stroke-miterlimit="10"/>
</mask>
<g mask="url(#mask2_1_468)">
<path d="M348.043 67.0712L340.537 67.3165L337.103 61.2324L329.891 61.5759L333.276 67.5128L326.114 67.7581L329.45 73.7931L336.661 73.6459L344.118 73.4496L347.749 79.73L355.451 79.6809L359.277 86.1575H367.372L363.398 79.5828L359.523 73.1062L351.722 73.3025L348.043 67.0712Z" fill="#C5E9DA"/>
<path d="M344.462 60.9371L340.929 54.9512L333.669 55.3437L337.103 61.2315L344.462 60.9371Z" fill="#36B37E"/>
<path d="M355.745 66.7769L352.017 60.5947L344.462 60.9382L348.043 67.0713L355.745 66.7769Z" fill="#36B37E"/>
<path d="M359.768 60.2503L355.99 54.1172L348.386 54.5097L352.017 60.5938L359.768 60.2503Z" fill="#36B37E"/>
<path d="M363.643 66.531L355.745 66.7764L359.523 73.1058L367.568 72.9586L375.81 72.7623L371.738 66.2857L367.764 59.9072L359.768 60.2507L363.643 66.531Z" fill="#36B37E"/>
<path d="M322.876 61.8703L329.891 61.5759L326.604 55.6881L333.669 55.3446L330.333 49.5059L323.367 49.9474L316.547 50.389L319.687 56.0806L312.917 56.424L306.343 56.7675L309.336 62.4591L316.008 62.1647L319.148 68.0034L326.114 67.7581L322.876 61.8703Z" fill="#172B4D"/>
<path d="M312.377 68.1992L315.468 74.087L322.385 73.9398L319.148 68.0029L312.377 68.1992Z" fill="#36B37E"/>
<path d="M306.932 45.2856L309.876 50.8299L316.547 50.3883L313.457 44.7949L306.932 45.2856Z" fill="#36B37E"/>
<path d="M340.929 54.9516L348.386 54.51L344.805 48.5731L341.322 42.7344L334.11 43.2741L327.046 43.8138L330.333 49.5054L337.495 49.0638L340.929 54.9516Z" fill="#36B37E"/>
<path d="M360.013 47.5918L352.311 48.0824L355.99 54.1175L363.84 53.7249L360.013 47.5918Z" fill="#36B37E"/>
<path d="M375.908 59.5635L371.885 53.2832L363.84 53.7248L367.764 59.907L375.908 59.5635Z" fill="#36B37E"/>
<path d="M322.385 73.9392L325.672 80.0233L332.835 79.9251L329.45 73.792L322.385 73.9392Z" fill="#36B37E"/>
</g>
<path d="M359.67 77.0303L332.197 82.9181L331.511 84.7335L337.643 93.1236L359.67 77.0303Z" fill="#172B4D"/>
<path d="M383.12 84.5377L377.576 79.8274L368.991 73.3018L347.258 82.0354L346.277 87.2853L351.575 94.7923L383.12 84.5377Z" fill="white" stroke="#36B37E" stroke-width="0.598795" stroke-miterlimit="10"/>
<path d="M371.984 88.1189L388.026 82.918L378.803 106.077L365.557 106.911L371.984 88.1189Z" fill="white" stroke="#36B37E" stroke-width="0.598795" stroke-miterlimit="10"/>
<path d="M354.764 93.6635L351.575 94.792L350.104 115.743L351.575 120.159L365.557 106.911L371.984 88.1191L354.764 93.6635Z" fill="white" stroke="#36B37E" stroke-width="0.598795" stroke-miterlimit="10"/>
<path d="M397.69 79.8271L425.408 94.792L354.764 93.6635L397.69 79.8271Z" fill="#C5E9DA" stroke="#36B37E" stroke-width="0.598795" stroke-miterlimit="10"/>
<path d="M351.575 94.7922V91.3576L329.352 60.79L326.408 65.4512L347.651 117.706L350.104 115.743L351.575 94.7922Z" fill="white" stroke="#36B37E" stroke-width="0.598795" stroke-miterlimit="10"/>
<path d="M329.352 60.7898L326.408 65.4509L316.499 74.6752L324.348 58.8271L329.352 60.7898Z" fill="white" stroke="#36B37E" stroke-width="0.598795" stroke-miterlimit="10"/>
<path d="M382.335 97.1477L354.764 93.6641L383.561 94.1547L382.335 97.1477Z" fill="#172B4D"/>
<path d="M357.757 92.731L348.141 84.7334L347.749 86.1072L351.575 91.3572V94.7918L357.757 92.731Z" fill="#172B4D"/>
<path d="M345.59 112.701L343.334 115.498L340.39 112.701L325.035 66.7759L326.409 65.4512L345.59 112.701Z" fill="#C5E9DA" stroke="#36B37E" stroke-width="0.598795" stroke-miterlimit="10"/>
</g>
<defs>
<clipPath id="clip0_1_468">
<rect width="127.445" height="64.3839" fill="white" transform="translate(-57 337)"/>
</clipPath>
</defs>
</svg>
