<svg width="20" height="17" viewBox="0 0 20 17" fill="none" xmlns="http://www.w3.org/2000/svg">
<path d="M18.4042 2.6989L20 1.18571V0.854492H14.4717L10.5317 10.5746L6.04917 0.854492H0.2525V1.18571L2.11667 3.41007C2.29833 3.57444 2.39333 3.8148 2.36917 4.05681V12.7981C2.42667 13.1128 2.32333 13.4366 2.1 13.6654L0 16.188V16.515H5.95417V16.1838L3.85417 13.6654C3.62667 13.4358 3.51917 13.1178 3.565 12.7981V5.23713L8.79167 16.5192H9.39917L13.8933 5.23713V14.2246C13.8933 14.4617 13.8933 14.5104 13.7367 14.6657L12.12 16.216V16.5481H19.9633V16.2169L18.405 14.7045C18.2683 14.6021 18.1975 14.4303 18.2267 14.2634V3.13997C18.1975 2.9723 18.2675 2.8005 18.4042 2.6989Z" fill="#505F79"/>
</svg>
