<svg width="15" height="19" viewBox="0 0 15 19" fill="none" xmlns="http://www.w3.org/2000/svg">
<path d="M7.14827 18.9159C11.9201 18.9159 14.8893 15.6426 14.8893 11.4197C14.8893 9.82758 14.6108 8.38997 12.6694 7.95806C13.1418 6.75375 14.505 3.27008 14.505 2.15404C14.505 1.17121 13.87 0.347579 12.738 0.347579C10.9337 0.347579 9.31658 5.2129 8.81027 6.37307C8.41827 5.32009 6.58269 0 4.96471 0C3.70741 0 3.11729 0.845697 3.11729 1.90971C3.11729 3.21412 4.49989 6.59454 5.00112 7.89501C4.74712 7.80989 4.47195 7.7358 4.19171 7.7358C3.24513 7.7358 2.23845 8.81085 2.23845 9.6794C2.23845 10.0081 2.43657 10.4699 2.56187 10.7765C1.07005 11.1462 0.496007 12.0549 0.496007 13.4255C0.491774 16.0927 3.25868 18.9159 7.14827 18.9159ZM11.2377 3.99046C11.4002 3.53569 12.0911 1.61494 12.738 1.61494C13.0859 1.61494 13.1791 1.9436 13.1791 2.20606C13.1791 2.91147 11.6187 6.80971 11.2741 7.67353L9.89909 7.45206L11.2377 3.99046ZM4.38729 1.78518V1.7844C4.38729 1.3446 4.97403 0.0961558 6.25927 3.52466L7.65881 7.23059C7.02804 7.18251 6.53867 7.11946 6.22794 7.28261C5.78683 6.21859 4.38729 2.86024 4.38729 1.78518ZM4.29415 9.0142L4.295 9.01498C5.47949 9.01498 7.00857 12.5097 7.00857 12.9826C7.00857 13.171 6.81045 13.4035 6.58015 13.4035C5.73433 13.4035 3.4695 10.5621 3.4695 9.79369C3.47289 9.50916 3.98258 9.0142 4.29415 9.0142ZM2.93271 11.9067C3.3933 11.9067 5.12812 14.1349 5.12812 14.6078C5.12812 14.7891 4.81655 14.9144 4.65568 14.9144C4.00459 14.9144 3.74975 14.3414 2.58981 13.0157C1.38839 14.1128 3.4187 16.2259 4.94778 16.2259C6.00273 16.2259 6.69022 15.3321 6.48448 14.674C6.63434 14.674 6.81976 14.685 6.95777 14.6519C7.00264 15.6529 7.32607 16.8462 8.64433 16.9313C8.64433 16.8982 8.72561 16.6688 8.72561 16.6578C8.72561 16.0146 8.29719 15.4535 8.29719 14.7993C8.29719 13.7534 9.17434 12.7414 10.0642 12.1503C10.3876 11.9288 10.7805 11.7917 11.1598 11.6664C11.5526 11.53 11.9692 11.3708 12.2672 11.0973C12.2223 10.6835 12.0369 10.3178 11.584 10.3178C10.4638 10.3178 6.70715 10.466 6.70715 8.85105C6.70715 8.60356 6.71139 8.36712 7.41158 8.36712C8.71799 8.36712 12.0344 8.66268 13.0047 9.44217C13.7362 10.0372 13.9876 13.6241 11.7507 15.8964L11.7482 15.8972C10.5713 17.0794 9.06681 17.6926 7.31167 17.6926C4.90968 17.6926 3.0123 16.4883 2.09875 14.4304C1.40702 12.8273 2.25284 11.9067 2.93271 11.9067ZM7.75956 11.2415C8.15326 11.3566 8.55712 11.3905 8.96183 11.4638C8.66211 11.6632 8.39625 11.9075 8.14056 12.1692C8.02711 11.8555 7.8891 11.5489 7.75956 11.2415Z" fill="#505F79"/>
</svg>
