<svg width="20" height="19" viewBox="0 0 20 19" fill="none" xmlns="http://www.w3.org/2000/svg">
<path d="M19.177 7.05669C19.177 5.97859 18.8051 4.96582 18.0952 4.08373C18.3657 3.23432 18.4333 2.15621 18.3657 0.914757C18.3319 0.392039 17.8924 0 17.3515 0C17.0473 0 14.4782 0.0326698 12.9908 1.3068C11.7063 1.07811 10.3541 1.07811 9.03574 1.3068C7.58216 0.0326698 5.01305 0 4.67501 0C4.13414 0 3.69469 0.392039 3.66089 0.914757C3.55948 2.15621 3.66089 3.23432 3.93132 4.08373C3.22143 4.99849 2.84959 6.01126 2.84959 7.05669C2.84959 9.34359 4.67501 11.4018 7.44694 12.3819C7.34553 12.5779 7.27792 12.8066 7.21032 13.0353C4.26936 12.7413 2.88339 10.1603 2.81579 10.0623C2.57916 9.57228 1.97068 9.37626 1.46362 9.63762C0.956562 9.8663 0.753738 10.4544 1.02417 10.9444C1.09178 11.1078 2.951 14.6034 7.0413 14.9955V17.9358C7.0413 18.4912 7.48075 18.9159 8.05542 18.9159H13.9711C14.5458 18.9159 14.9853 18.4912 14.9853 17.9358V14.048C14.9853 13.46 14.85 12.9046 14.6134 12.4146C17.3515 11.4018 19.177 9.37626 19.177 7.05669Z" fill="#505F79"/>
</svg>
