<svg width="128" height="128" viewBox="0 0 128 128" fill="none" xmlns="http://www.w3.org/2000/svg">
<g filter="url(#filter0_d_73_257)">
<circle cx="64" cy="48" r="40" fill="white"/>
</g>
<g clip-path="url(#clip0_73_257)">
<path d="M60.1996 28H69.1996C70.3996 28 71.1996 29.2 70.9996 30.4L66.5996 44.8H71.1996C72.5996 44.8 73.5996 46.2 72.9996 47.6L63.9996 66C63.5996 66.6 62.5996 66.4 62.7996 65.6L64.9996 51.6H57.9996C56.7996 51.6 55.9996 50.6 56.1996 49.4L58.3996 29.8C58.3996 28.8 59.1996 28 60.1996 28Z" fill="#36B37E"/>
<path d="M42.4366 40.6706L45.6444 38.8185C46.0722 38.5716 46.6076 38.8406 46.7867 39.3153L48.2224 45.4238L49.862 44.4772C50.361 44.1891 51.0094 44.4892 51.0876 45.1185L51.7183 53.6189C51.7009 53.9181 51.3027 54.0516 51.2071 53.7214L49.0707 48.2101L46.5757 49.6506C46.148 49.8975 45.6542 49.7008 45.4752 49.2261L42.1706 41.6914C41.9619 41.33 42.0802 40.8764 42.4366 40.6706Z" fill="#091E42"/>
<path d="M86.6256 40.6706L83.4177 38.8185C82.99 38.5716 82.4545 38.8406 82.2755 39.3153L80.8398 45.4238L79.2002 44.4772C78.7012 44.1891 78.0527 44.4892 77.9745 45.1185L77.3439 53.6189C77.3613 53.9181 77.7595 54.0516 77.8551 53.7214L79.9915 48.2101L82.4865 49.6506C82.9142 49.8975 83.4079 49.7008 83.587 49.2261L86.8916 41.6914C87.1002 41.33 86.982 40.8764 86.6256 40.6706Z" fill="#091E42"/>
</g>
<defs>
<filter id="filter0_d_73_257" x="0" y="0" width="128" height="128" filterUnits="userSpaceOnUse" color-interpolation-filters="sRGB">
<feFlood flood-opacity="0" result="BackgroundImageFix"/>
<feColorMatrix in="SourceAlpha" type="matrix" values="0 0 0 0 0 0 0 0 0 0 0 0 0 0 0 0 0 0 127 0" result="hardAlpha"/>
<feOffset dy="16"/>
<feGaussianBlur stdDeviation="12"/>
<feColorMatrix type="matrix" values="0 0 0 0 0.145573 0 0 0 0 0.185183 0 0 0 0 0.5375 0 0 0 0.08 0"/>
<feBlend mode="normal" in2="BackgroundImageFix" result="effect1_dropShadow_73_257"/>
<feBlend mode="normal" in="SourceGraphic" in2="effect1_dropShadow_73_257" result="shape"/>
</filter>
<clipPath id="clip0_73_257">
<rect width="48" height="48" fill="white" transform="translate(40 24)"/>
</clipPath>
</defs>
</svg>
