<svg width="128" height="128" viewBox="0 0 128 128" fill="none" xmlns="http://www.w3.org/2000/svg">
<g filter="url(#filter0_d_73_255)">
<circle cx="64" cy="48" r="40" fill="white"/>
</g>
<g clip-path="url(#clip0_73_255)">
<path d="M76.2706 46.8957H85.7044C85.8518 46.8957 85.9992 46.7486 85.9992 46.6014C85.3359 36.7419 78.1868 28.5747 68.753 26.5145C68.5319 26.4409 68.3108 26.7352 68.5319 26.9559C72.954 31.8857 75.7546 38.9492 76.0494 46.675C75.9757 46.8221 76.1232 46.8957 76.2706 46.8957Z" fill="#091E42"/>
<path d="M64.1841 26C64.1104 26 64.0367 26 63.963 26C63.8893 26 63.8156 26 63.7419 26C58.0668 30.3411 54.5292 38.0669 54.1606 46.602C54.1606 46.7492 54.308 46.8963 54.4555 46.8963H73.4705C73.6179 46.8963 73.7653 46.7492 73.7653 46.602C73.4705 38.0669 69.8591 30.3411 64.1841 26Z" fill="#36B37E"/>
<path d="M54.4555 49.1035C54.308 49.1035 54.1606 49.2507 54.1606 49.3978C54.5292 58.0065 58.0668 65.6587 63.7419 69.9998C63.8156 69.9998 63.8893 69.9998 63.963 69.9998C64.0367 69.9998 64.1104 69.9998 64.1841 69.9998C69.8591 65.6587 73.3968 57.9329 73.7653 49.3978C73.7653 49.2507 73.6179 49.1035 73.4705 49.1035H54.4555Z" fill="#091E42"/>
<path d="M75.9758 49.3243C75.681 57.05 72.954 64.1136 68.5319 69.0433C68.3845 69.2641 68.5319 69.5584 68.753 69.4848C78.1868 67.4246 85.4096 59.2574 85.9992 49.3978C85.9992 49.2507 85.8518 49.1035 85.7044 49.1035H76.2706C76.1232 49.1035 75.9758 49.2507 75.9758 49.3243Z" fill="#36B37E"/>
<path d="M51.7283 49.1035H42.2945C42.1471 49.1035 41.9997 49.2507 41.9997 49.3978C42.5893 59.2574 49.8121 67.4246 59.2459 69.4848C59.467 69.5584 59.6881 69.2641 59.467 69.0433C54.9712 64.1136 52.2442 57.05 51.9494 49.3243C52.0231 49.2507 51.8757 49.1035 51.7283 49.1035Z" fill="#36B37E"/>
<path d="M52.0231 46.675C52.3179 38.9492 55.0449 31.8857 59.467 26.9559C59.6144 26.7352 59.467 26.4409 59.2459 26.5145C49.8121 28.5747 42.5893 36.7419 41.9997 46.6014C41.9997 46.7486 42.1471 46.8957 42.2945 46.8957H51.7283C51.8757 46.8957 52.0231 46.8221 52.0231 46.675Z" fill="#091E42"/>
</g>
<defs>
<filter id="filter0_d_73_255" x="0" y="0" width="128" height="128" filterUnits="userSpaceOnUse" color-interpolation-filters="sRGB">
<feFlood flood-opacity="0" result="BackgroundImageFix"/>
<feColorMatrix in="SourceAlpha" type="matrix" values="0 0 0 0 0 0 0 0 0 0 0 0 0 0 0 0 0 0 127 0" result="hardAlpha"/>
<feOffset dy="16"/>
<feGaussianBlur stdDeviation="12"/>
<feColorMatrix type="matrix" values="0 0 0 0 0.145573 0 0 0 0 0.185183 0 0 0 0 0.5375 0 0 0 0.08 0"/>
<feBlend mode="normal" in2="BackgroundImageFix" result="effect1_dropShadow_73_255"/>
<feBlend mode="normal" in="SourceGraphic" in2="effect1_dropShadow_73_255" result="shape"/>
</filter>
<clipPath id="clip0_73_255">
<rect width="44" height="44" fill="white" transform="translate(41.9997 26)"/>
</clipPath>
</defs>
</svg>
