<svg width="128" height="128" viewBox="0 0 128 128" fill="none" xmlns="http://www.w3.org/2000/svg">
<g filter="url(#filter0_d_73_256)">
<circle cx="64" cy="48" r="40" fill="white"/>
</g>
<path d="M56 52.7999C56 53.1999 56.2 53.5999 56.6 53.7999L61.6 56.7999C62.2 57.1999 62.8 56.7999 62.8 56.1999V50.5999C62.8 50.3999 62.6 49.9999 62.4 49.9999L57.2 46.5999C56.8 46.3999 56 46.7999 56 47.3999V52.7999Z" fill="#091E42"/>
<path d="M63.5998 50.3997V55.9997C63.5998 56.5997 64.1998 56.9997 64.7998 56.5997L69.7998 53.5997C70.1998 53.3997 70.3998 52.9997 70.3998 52.5997V47.3997C70.3998 46.7997 69.7998 46.3997 69.1998 46.7997L63.9998 49.5997C63.7998 49.7997 63.5998 49.9997 63.5998 50.3997Z" fill="#091E42"/>
<path d="M69.2 45.7998L63.6 48.9998C63.4 49.1998 63 49.1998 62.8 48.9998L57.2 45.7998C56.6 45.3998 56.6 44.7998 57.2 44.3998L62.8 41.1998C63 40.9998 63.4 40.9998 63.6 41.1998L69.2 44.3998C69.8 44.5998 69.8 45.3998 69.2 45.7998Z" fill="#36B37E"/>
<path d="M44 64.0001C44 64.4001 44.2 64.8001 44.6 65.0001L49.6 68.0001C50.2 68.4001 50.8 68.0001 50.8 67.4001V61.8001C50.8 61.6001 50.6 61.2001 50.4 61.2001L45.2 58.2001C44.6 57.8001 44 58.2001 44 58.8001V64.0001V64.0001Z" fill="#091E42"/>
<path d="M51.5998 61.4003V67.0003C51.5998 67.6003 52.1998 68.0003 52.7998 67.6003L57.7998 64.6003C58.1998 64.4003 58.3998 64.0003 58.3998 63.6003V58.0003C58.3998 57.4003 57.7998 57.0003 57.1998 57.4003L51.9998 60.8003C51.7998 61.0003 51.5998 61.2003 51.5998 61.4003Z" fill="#091E42"/>
<path d="M57.2 56.7998L51.6 59.9998C51.4 60.1998 51 60.1998 50.8 59.9998L45.2 56.7998C44.6 56.3998 44.6 55.7998 45.2 55.3998L50.8 52.1998C51 51.9998 51.4 51.9998 51.6 52.1998L57.2 55.3998C57.6 55.7998 57.6 56.5998 57.2 56.7998Z" fill="#36B37E"/>
<path d="M68.2001 64.0001C68.2001 64.4001 68.4001 64.8001 68.8001 65.0001L73.8001 68.0001C74.4001 68.4001 75.0001 68.0001 75.0001 67.4001V61.8001C75.0001 61.6001 74.8001 61.2001 74.6001 61.2001L69.4001 58.2001C68.8001 57.8001 68.2001 58.2001 68.2001 58.8001V64.0001Z" fill="#091E42"/>
<path d="M75.5998 61.4003V67.0003C75.5998 67.6003 76.1998 68.0003 76.7998 67.6003L81.7998 64.6003C82.1998 64.4003 82.3998 64.0003 82.3998 63.6003V58.0003C82.3998 57.4003 81.7998 57.0003 81.1998 57.4003L75.9998 60.8003C75.7998 61.0003 75.5998 61.2003 75.5998 61.4003Z" fill="#091E42"/>
<path d="M81.2 56.7998L75.6 59.9998C75.4 60.1998 75 60.1998 74.8 59.9998L69.2 56.7998C68.6 56.3998 68.6 55.7998 69.2 55.3998L74.8 52.1998C75 51.9998 75.4 51.9998 75.6 52.1998L81.2 55.3998C81.8 55.7998 81.8 56.5998 81.2 56.7998Z" fill="#36B37E"/>
<path d="M44 41.8005C44 42.2005 44.2 42.6005 44.6 42.8005L49.6 45.8005C50 46.0005 50.8 45.6005 50.8 45.0005V39.2005C50.8 39.0005 50.6 38.6005 50.4 38.6005L45.2 35.6005C44.6 35.4005 44 35.6005 44 36.4005V41.8005Z" fill="#091E42"/>
<path d="M51.5998 39.1997V44.7997C51.5998 45.3997 52.1998 45.7997 52.7998 45.3997L57.7998 42.3997C58.1998 42.1997 58.3998 41.7997 58.3998 41.3997V36.3997C58.3998 35.7997 57.7998 35.3997 57.1998 35.7997L51.9998 38.5997C51.7998 38.7997 51.5998 38.9997 51.5998 39.1997Z" fill="#091E42"/>
<path d="M57.2 34.6L51.6 37.8C51.4 38 51 38 50.8 37.8L45.2 34.6C44.6 34.2 44.6 33.6 45.2 33.2L50.8 30C51 30 51.4 30 51.6 30.2L57.2 33.4C57.6 33.6 57.6 34.4 57.2 34.6Z" fill="#36B37E"/>
<path d="M68.2001 41.8005C68.2001 42.2005 68.4001 42.6005 68.8001 42.8005L73.8001 45.8005C74.4001 46.2005 75.0001 45.8005 75.0001 45.2005V39.2005C75.0001 39.0005 74.8001 38.6005 74.6001 38.6005L69.4001 35.6005C68.8001 35.2005 68.2001 35.6005 68.2001 36.2005V41.8005Z" fill="#091E42"/>
<path d="M75.5998 39.1997V44.7997C75.5998 45.3997 76.1998 45.7997 76.7998 45.3997L81.7998 42.3997C82.1998 42.1997 82.3998 41.7997 82.3998 41.3997V36.3997C82.3998 35.7997 81.7998 35.3997 81.1998 35.7997L75.9998 38.5997C75.7998 38.7997 75.5998 38.9997 75.5998 39.1997Z" fill="#091E42"/>
<path d="M81.2 34.5998L75.6 37.9998C75.4 37.9998 75.2 37.9998 74.8 37.9998L69.2 34.7998C68.6 34.3998 68.6 33.7998 69.2 33.3998L74.8 30.1998C75 29.9998 75.4 29.9998 75.6 30.1998L81.2 33.3998C81.8 33.5998 81.8 34.3998 81.2 34.5998Z" fill="#36B37E"/>
<defs>
<filter id="filter0_d_73_256" x="0" y="0" width="128" height="128" filterUnits="userSpaceOnUse" color-interpolation-filters="sRGB">
<feFlood flood-opacity="0" result="BackgroundImageFix"/>
<feColorMatrix in="SourceAlpha" type="matrix" values="0 0 0 0 0 0 0 0 0 0 0 0 0 0 0 0 0 0 127 0" result="hardAlpha"/>
<feOffset dy="16"/>
<feGaussianBlur stdDeviation="12"/>
<feColorMatrix type="matrix" values="0 0 0 0 0.145573 0 0 0 0 0.185183 0 0 0 0 0.5375 0 0 0 0.08 0"/>
<feBlend mode="normal" in2="BackgroundImageFix" result="effect1_dropShadow_73_256"/>
<feBlend mode="normal" in="SourceGraphic" in2="effect1_dropShadow_73_256" result="shape"/>
</filter>
</defs>
</svg>
