<svg width="236" height="128" viewBox="0 0 236 128" fill="none" xmlns="http://www.w3.org/2000/svg">
<path d="M-3.95312 127.821L224.485 124.922L135.963 101.025L145.941 80.3147L202.558 72.6905L188.055 69.3905L149.073 67.6836L-3.95312 127.821Z" fill="#172B4D"/>
<path d="M122.389 22.0519L115.428 22.1657L57.5352 1L122.969 37.4141L133.643 28.7658L122.389 22.0519Z" fill="#36B37E"/>
<path d="M122.389 22.0522L235.042 1.79688L178.774 55.3939L122.389 22.0522Z" fill="#172B4D"/>
<path d="M57.5352 1L169.956 63.7005L144.664 68.2523L82.711 72.6903L57.5352 1Z" fill="white" stroke="#36B37E" stroke-width="1.43685" stroke-miterlimit="10" stroke-linejoin="round"/>
<path d="M169.956 63.7009L235.042 1.79688L188.055 69.3906L169.956 63.7009Z" fill="white" stroke="#36B37E" stroke-width="1.43685" stroke-miterlimit="10" stroke-linejoin="round"/>
<path d="M122.969 37.4138L152.09 13.8584L155.106 16.2481L145.941 50.2725L122.969 37.4138Z" fill="white" stroke="#36B37E" stroke-width="1.43685" stroke-miterlimit="10" stroke-linejoin="round"/>
<path d="M155.106 16.248L181.442 52.8897L169.956 63.7002L145.94 50.2725L155.106 16.248Z" fill="white" stroke="#36B37E" stroke-width="1.43685" stroke-miterlimit="10" stroke-linejoin="round"/>
<path d="M188.055 69.3899L144.665 68.252L169.956 63.7002L188.055 69.3899Z" fill="white" stroke="#36B37E" stroke-width="1.43685" stroke-miterlimit="10" stroke-linejoin="round"/>
<path d="M38.1605 51.8664L28.8791 53.4595L-52.7974 37.3008L42.3371 72.1218L54.751 58.3527L38.1605 51.8664Z" fill="white" stroke="#36B37E" stroke-width="1.43685" stroke-miterlimit="10" stroke-linejoin="round"/>
<path d="M38.1606 51.8663L183.879 1.79688L120.417 84.2976L38.1606 51.8663Z" fill="#C5E9DA" stroke="#36B37E" stroke-width="1.43685" stroke-miterlimit="10"/>
<path d="M-52.7974 37.3008L110.672 97.0427L77.8385 108.422L-3.83791 126.971L-52.7974 37.3008Z" fill="white" stroke="#36B37E" stroke-width="1.43685" stroke-miterlimit="10" stroke-linejoin="round"/>
<path d="M110.671 97.0425L183.878 1.79688L135.963 101.025L110.671 97.0425Z" fill="white" stroke="#36B37E" stroke-width="1.43685" stroke-miterlimit="10" stroke-linejoin="round"/>
<path d="M42.3369 72.1218L76.0981 34.9111L80.6227 37.3008L75.75 84.2978L42.3369 72.1218Z" fill="#36B37E"/>
<path d="M80.6227 37.3008L123.433 80.4287L110.671 97.0427L75.75 84.2977L80.6227 37.3008Z" fill="white" stroke="#36B37E" stroke-width="1.43685" stroke-miterlimit="10" stroke-linejoin="round"/>
<path d="M135.963 101.026L77.8384 108.422L110.671 97.043L135.963 101.026Z" fill="white" stroke="#36B37E" stroke-width="1.43685" stroke-miterlimit="10" stroke-linejoin="round"/>
<mask id="mask0_73_397" style="mask-type:alpha" maskUnits="userSpaceOnUse" x="-54" y="37" width="166" height="91">
<path d="M-53 37.7246L110.364 96.8037L78.0132 107.738L-3.66327 126.287L-53 37.7246Z" fill="white" stroke="#36B37E" stroke-width="1.43685" stroke-miterlimit="10" stroke-linejoin="round"/>
</mask>
<g mask="url(#mask0_73_397)">
<path d="M45.3535 99.4316L27.6028 100.001L19.3656 86.0039L2.31099 86.6867L10.3162 100.57L-6.50635 101.025L1.26683 115.021L18.4374 114.68L35.9561 114.225L44.5414 128.904L62.8722 128.677L71.9216 143.698H90.9485L81.6671 128.449L72.5017 113.542L53.9388 113.883L45.3535 99.4316Z" fill="#C5E9DA"/>
<path d="M36.7685 85.2071L28.4152 71.3242L11.2446 72.2346L19.3659 86.0037L36.7685 85.2071Z" fill="#C5E9DA"/>
<path d="M63.4526 98.863L54.7513 84.4111L36.7686 85.2077L45.3539 99.432L63.4526 98.863Z" fill="#36B37E"/>
<path d="M73.0819 83.7277L64.1486 69.3896L46.0498 70.4138L54.7511 84.4105L73.0819 83.7277Z" fill="#172B4D"/>
<path d="M82.1315 98.1801L63.4526 98.8628L72.502 113.542L91.4129 113.087L110.904 112.632L101.274 97.6111L91.877 82.9316L73.0821 83.7282L82.1315 98.1801Z" fill="#36B37E"/>
<path d="M-14.2795 87.3695L2.31104 86.6867L-5.46215 73.1452L11.2444 72.2349L3.3552 58.6934L-13.1193 59.7175L-29.2458 60.7417L-21.8206 73.9418L-37.7151 74.8521L-53.3774 75.6487L-46.3004 88.735L-30.4059 88.0522L-22.9808 101.594L-6.5063 101.025L-14.2795 87.3695Z" fill="#36B37E"/>
<path d="M28.415 71.3244L46.0497 70.4141L37.5804 56.645L29.3432 43.1035L12.2886 44.3552L-4.41797 45.4932L3.35522 58.6933L20.2938 57.6692L28.415 71.3244Z" fill="#36B37E"/>
<path d="M73.662 54.3691L55.4473 55.5071L64.1486 69.3899L82.7114 68.4796L73.662 54.3691Z" fill="#36B37E"/>
<path d="M111.252 82.0207L101.622 67.4551L82.7114 68.4792L91.8768 82.9311L111.252 82.0207Z" fill="#36B37E"/>
<path d="M-15.4395 115.363L-7.66627 129.473L9.27232 129.246L1.26709 115.021L-15.4395 115.363Z" fill="#36B37E"/>
</g>
</svg>
