<svg width="21" height="19" viewBox="0 0 21 19" fill="none" xmlns="http://www.w3.org/2000/svg">
<path d="M14.4867 2.86914C10.9421 2.86914 8.02919 5.54345 8.02919 8.87003V18.2627C8.02919 18.6215 8.34505 18.915 8.73109 18.915H12.381C12.767 18.915 13.0829 18.6215 13.0829 18.2627V9.13094C13.0829 8.41344 13.7146 7.8264 14.4867 7.8264C15.2588 7.8264 15.8905 8.41344 15.8905 9.13094V18.2627C15.8905 18.6215 16.2063 18.915 16.5924 18.915H20.2422C20.6283 18.915 20.9441 18.6215 20.9441 18.2627V8.87003C20.9441 5.57607 18.0664 2.86914 14.4867 2.86914Z" fill="#505F79"/>
<path d="M3.15084 0C1.74704 0 0.624001 1.04331 0.624001 2.34745C0.624001 3.65158 1.74704 4.69489 3.15084 4.69489C4.55464 4.69489 5.67768 3.65158 5.67768 2.34745C5.67768 1.04331 4.55464 0 3.15084 0Z" fill="#505F79"/>
<path d="M4.97578 5.93555H1.3259C0.939855 5.93555 0.624001 6.22907 0.624001 6.58782V18.2635C0.624001 18.6222 0.939855 18.9157 1.3259 18.9157H4.97578C5.36182 18.9157 5.67768 18.6222 5.67768 18.2635V6.58782C5.67768 6.22907 5.36182 5.93555 4.97578 5.93555Z" fill="#505F79"/>
</svg>
