<svg width="21" height="19" viewBox="0 0 21 19" fill="none" xmlns="http://www.w3.org/2000/svg">
<path d="M20.0748 0.373043C19.7361 -0.00401672 19.1604 -0.0982816 18.7201 0.184513L16.7559 1.44138C15.8415 0.530151 14.5545 0.0274049 13.166 0.0274049C10.4228 0.0274049 8.15372 2.10123 8.15372 4.6778C8.15372 5.05486 8.18759 5.4005 8.28919 5.74614C5.91852 5.27481 4.49612 3.67231 3.95426 0.781524C3.88652 0.404464 3.58172 0.12167 3.17532 0.0274049C2.80279 -0.06686 2.39639 0.0902481 2.15932 0.373043C2.09159 0.435886 -3.49641 7.66286 4.59772 13.7901C3.81879 15.3297 1.48199 16.6494 0.567589 17.0893C0.127323 17.2779 -0.0758774 17.7178 0.0257226 18.1577C0.127323 18.5976 0.533723 18.8804 1.00786 18.8804H2.76892C13.0644 18.8804 17.738 14.1357 17.8396 3.5152L19.9732 1.62991C20.3796 1.31569 20.4135 0.750102 20.0748 0.373043Z" fill="#505F79"/>
</svg>
